<svg width="35" height="36" viewBox="0 0 35 36" fill="none" xmlns="http://www.w3.org/2000/svg">
<path d="M12.0186 0.98684C8.40805 2.24934 5.2943 4.6456 3.13473 7.82364C0.975161 11.0017 -0.116398 14.794 0.0203857 18.6436C0.15717 22.4932 1.51509 26.1971 3.89468 29.2112C6.27427 32.2254 9.55012 34.391 13.241 35.3899C16.2334 36.1682 19.3684 36.2024 22.3767 35.4895C25.102 34.8725 27.6215 33.5527 29.6887 31.6594C31.8401 29.6286 33.4018 27.0452 34.2057 24.1869C35.0795 21.0786 35.235 17.8097 34.6602 14.6314H17.8569V21.6572H27.5882C27.3938 22.7777 26.977 23.8472 26.3629 24.8016C25.7487 25.756 24.9499 26.5758 24.0141 27.2117C22.8258 28.004 21.4863 28.5371 20.0815 28.7768C18.6726 29.0409 17.2275 29.0409 15.8186 28.7768C14.3906 28.4792 13.0397 27.8852 11.8521 27.0325C9.94403 25.6711 8.51136 23.7371 7.7585 21.5063C6.9929 19.2338 6.9929 16.7702 7.7585 14.4977C8.2944 12.9048 9.18033 11.4544 10.3501 10.2549C11.6889 8.857 13.3837 7.85778 15.2487 7.36686C17.1138 6.87593 19.0769 6.91229 20.9228 7.47193C22.3648 7.91809 23.6834 8.69763 24.7736 9.74839C25.8708 8.6481 26.9662 7.54496 28.0597 6.43898C28.6243 5.84425 29.2398 5.27798 29.7959 4.66903C28.1319 3.10816 26.1786 1.89361 24.048 1.09497C20.1682 -0.325003 15.923 -0.363163 12.0186 0.98684Z" fill="white"/>
<path d="M12.0181 0.986783C15.9221 -0.364138 20.1674 -0.326982 24.0475 1.09207C26.1785 1.89613 28.1309 3.11653 29.7926 4.6832C29.228 5.29215 28.6323 5.86127 28.0564 6.45315C26.961 7.55534 25.8666 8.65373 24.7731 9.74834C23.6829 8.69757 22.3643 7.91803 20.9223 7.47187C19.077 6.91027 17.1139 6.87181 15.2484 7.36073C13.3829 7.84964 11.687 8.84703 10.3468 10.2435C9.17699 11.443 8.29106 12.8933 7.75516 14.4862L1.90279 9.91907C3.99758 5.73197 7.62459 2.52916 12.0181 0.986783Z" fill="#E33629"/>
<path d="M0.350062 14.4435C0.664619 12.8722 1.18685 11.3505 1.90279 9.91906L7.75516 14.4976C6.98957 16.7701 6.98957 19.2338 7.75516 21.5063C5.80531 23.0239 3.85452 24.5492 1.90279 26.082C0.11052 22.4861 -0.436091 18.3889 0.350062 14.4435Z" fill="#F8BD00"/>
<path d="M17.8564 14.6285H34.6597C35.2345 17.8068 35.079 21.0756 34.2052 24.184C33.4012 27.0423 31.8396 29.6257 29.6882 31.6565C27.7995 30.1711 25.9023 28.6971 24.0136 27.2117C24.95 26.575 25.7492 25.7544 26.3634 24.799C26.9775 23.8435 27.394 22.773 27.5877 21.6514H17.8564C17.8535 19.3123 17.8564 16.9704 17.8564 14.6285Z" fill="#587DBD"/>
<path d="M1.89996 26.082C3.85169 24.5643 5.80248 23.0391 7.75233 21.5063C8.50669 23.7378 9.94141 25.6719 11.8515 27.0324C13.0429 27.8811 14.3967 28.4703 15.8265 28.7625C17.2354 29.0266 18.6806 29.0266 20.0895 28.7625C21.4942 28.5228 22.8338 27.9897 24.0221 27.1974C25.9108 28.6828 27.8079 30.1568 29.6966 31.6422C27.6298 33.5366 25.1102 34.8574 22.3847 35.4752C19.3764 36.1881 16.2413 36.1539 13.249 35.3756C10.8824 34.7387 8.67176 33.6159 6.75576 32.0776C4.72779 30.4547 3.07143 28.4096 1.89996 26.082Z" fill="#319F43"/>
</svg>
