<svg width="24" height="24" viewBox="0 0 24 24" fill="none" xmlns="http://www.w3.org/2000/svg">
<path d="M22.7986 4.32H12.48V1.6752C12.4802 1.45514 12.437 1.23721 12.3529 1.03387C12.2688 0.830525 12.1454 0.645768 11.9898 0.49017C11.8341 0.334572 11.6494 0.211188 11.446 0.127078C11.2427 0.0429692 11.0247 -0.00021387 10.8047 7.96425e-07H1.67508C1.45504 -0.000189323 1.23712 0.0430121 1.0338 0.127133C0.830477 0.211254 0.645737 0.334643 0.490152 0.490239C0.334567 0.645835 0.211192 0.830584 0.127086 1.03391C0.0429799 1.23724 -0.000205497 1.45516 7.35171e-07 1.6752V22.3248C0.000394696 22.7689 0.176998 23.1948 0.491047 23.5089C0.805096 23.8229 1.23093 23.9996 1.67508 24H10.8047C11.2489 23.9996 11.6748 23.823 11.9889 23.5089C12.303 23.1949 12.4796 22.769 12.48 22.3248V13.92H22.7988C23.1174 13.92 23.4229 13.7934 23.6482 13.5682C23.8734 13.3429 24 13.0374 24 12.7188V5.52138C24 5.36361 23.9689 5.20739 23.9086 5.06163C23.8482 4.91587 23.7597 4.78343 23.6481 4.67187C23.5366 4.56032 23.4041 4.47182 23.2584 4.41145C23.1126 4.35107 22.9564 4.32 22.7986 4.32ZM5.04 1.0176H7.44C7.59913 1.0176 7.75174 1.08081 7.86427 1.19334C7.97679 1.30586 8.04 1.45847 8.04 1.6176C8.04 1.77673 7.97679 1.92934 7.86427 2.04186C7.75174 2.15439 7.59913 2.2176 7.44 2.2176H5.04C4.88087 2.2176 4.72826 2.15439 4.61574 2.04186C4.50322 1.92934 4.44 1.77673 4.44 1.6176C4.44 1.45847 4.50322 1.30586 4.61574 1.19334C4.72826 1.08081 4.88087 1.0176 5.04 1.0176ZM7.43977 22.9784H5.03977C4.88064 22.9784 4.72802 22.9152 4.6155 22.8027C4.50298 22.6901 4.43977 22.5375 4.43977 22.3784C4.43977 22.2193 4.50298 22.0667 4.6155 21.9541C4.72802 21.8416 4.88064 21.7784 5.03977 21.7784H7.43977C7.5989 21.7784 7.75151 21.8416 7.86403 21.9541C7.97655 22.0667 8.03977 22.2193 8.03977 22.3784C8.03977 22.5375 7.97655 22.6901 7.86403 22.8027C7.75151 22.9152 7.5989 22.9784 7.43977 22.9784ZM11.4239 20.76H1.05586V3.24H11.4239V4.32H5.03013C4.71449 4.32 4.41177 4.44539 4.18858 4.66858C3.96539 4.89177 3.84 5.19449 3.84 5.51013V12.7288C3.84 12.8852 3.87081 13.0401 3.93068 13.1846C3.99054 13.3292 4.07829 13.4605 4.18891 13.5711C4.29952 13.6817 4.43085 13.7695 4.57538 13.8293C4.71991 13.8892 4.87481 13.92 5.03125 13.92H7.2V15.8479C7.2 15.9653 7.23479 16.0799 7.29997 16.1775C7.36515 16.275 7.4578 16.3511 7.56619 16.396C7.67458 16.4409 7.79385 16.4526 7.90891 16.4297C8.02398 16.4068 8.12967 16.3503 8.21263 16.2674L10.56 13.92H11.4239V20.76ZM10.1231 9.5568C10.2608 9.63676 10.3613 9.76793 10.4027 9.9217C10.444 10.0755 10.4229 10.2393 10.3439 10.3776C10.3049 10.4464 10.2526 10.5067 10.1901 10.5551C10.1275 10.6035 10.056 10.639 9.97965 10.6595C9.90329 10.6801 9.82362 10.6852 9.74525 10.6748C9.66687 10.6643 9.59137 10.6383 9.5231 10.5984L8.76 10.1568V11.04C8.76 11.1991 8.69679 11.3517 8.58427 11.4643C8.47174 11.5768 8.31913 11.64 8.16 11.64C8.00087 11.64 7.84826 11.5768 7.73574 11.4643C7.62321 11.3517 7.56 11.1991 7.56 11.04V10.1568L6.79664 10.5984C6.72838 10.6383 6.65287 10.6643 6.5745 10.6748C6.49613 10.6852 6.41645 10.6801 6.3401 10.6595C6.26374 10.639 6.19222 10.6035 6.1297 10.5551C6.06717 10.5067 6.01487 10.4464 5.97584 10.3776C5.89695 10.2393 5.87589 10.0755 5.91725 9.92174C5.9586 9.76801 6.05902 9.63684 6.19664 9.5568L6.96 9.12L6.19664 8.6784C6.05852 8.59884 5.95767 8.46766 5.91626 8.31374C5.87486 8.15981 5.89629 7.99574 5.97586 7.85762C6.05542 7.7195 6.1866 7.61864 6.34053 7.57724C6.49445 7.53584 6.65852 7.55727 6.79664 7.63684L7.56 8.0784V7.2C7.56 7.04087 7.62321 6.88826 7.73574 6.77574C7.84826 6.66321 8.00087 6.6 8.16 6.6C8.31913 6.6 8.47174 6.66321 8.58427 6.77574C8.69679 6.88826 8.76 7.04087 8.76 7.2V8.0784L9.52313 7.63684C9.66125 7.55727 9.82532 7.53584 9.97924 7.57724C10.1332 7.61864 10.2643 7.7195 10.3439 7.85762C10.4235 7.99574 10.4449 8.15981 10.4035 8.31374C10.3621 8.46766 10.2612 8.59884 10.1231 8.6784L9.36 9.12L10.1231 9.5568ZM15.8831 9.5568C16.0208 9.63676 16.1213 9.76793 16.1627 9.9217C16.204 10.0755 16.1829 10.2393 16.1039 10.3776C16.0649 10.4464 16.0126 10.5067 15.95 10.5551C15.8875 10.6035 15.816 10.639 15.7396 10.6595C15.6633 10.6801 15.5836 10.6852 15.5052 10.6748C15.4269 10.6643 15.3514 10.6383 15.2831 10.5984L14.52 10.1568V11.04C14.52 11.1991 14.4568 11.3517 14.3443 11.4643C14.2317 11.5768 14.0791 11.64 13.92 11.64C13.7609 11.64 13.6083 11.5768 13.4957 11.4643C13.3832 11.3517 13.32 11.1991 13.32 11.04V10.1568L12.5566 10.5984C12.4884 10.6383 12.4129 10.6643 12.3345 10.6748C12.2561 10.6852 12.1765 10.6801 12.1001 10.6595C12.0237 10.639 11.9522 10.6035 11.8897 10.5551C11.8272 10.5067 11.7749 10.4464 11.7358 10.3776C11.657 10.2393 11.6359 10.0755 11.6772 9.92174C11.7186 9.76801 11.819 9.63684 11.9566 9.5568L12.72 9.12L11.9566 8.6784C11.8185 8.59884 11.7177 8.46766 11.6763 8.31374C11.6349 8.15981 11.6563 7.99574 11.7359 7.85762C11.8154 7.7195 11.9466 7.61864 12.1005 7.57724C12.2545 7.53584 12.4185 7.55727 12.5566 7.63684L13.32 8.0784V7.2C13.32 7.04087 13.3832 6.88826 13.4957 6.77574C13.6083 6.66321 13.7609 6.6 13.92 6.6C14.0791 6.6 14.2317 6.66321 14.3443 6.77574C14.4568 6.88826 14.52 7.04087 14.52 7.2V8.0784L15.2831 7.63684C15.4212 7.55727 15.5853 7.53584 15.7392 7.57724C15.8932 7.61864 16.0243 7.7195 16.1039 7.85762C16.1835 7.99574 16.2049 8.15981 16.1635 8.31374C16.1221 8.46766 16.0212 8.59884 15.8831 8.6784L15.12 9.12L15.8831 9.5568ZM21.6431 9.5568C21.7808 9.63676 21.8813 9.76793 21.9227 9.9217C21.964 10.0755 21.9429 10.2393 21.8639 10.3776C21.8249 10.4464 21.7726 10.5067 21.71 10.5551C21.6475 10.6035 21.576 10.639 21.4996 10.6595C21.4233 10.6801 21.3436 10.6852 21.2652 10.6748C21.1869 10.6643 21.1114 10.6383 21.0431 10.5984L20.28 10.1568V11.04C20.28 11.1991 20.2168 11.3517 20.1043 11.4643C19.9917 11.5768 19.8391 11.64 19.68 11.64C19.5209 11.64 19.3683 11.5768 19.2557 11.4643C19.1432 11.3517 19.08 11.1991 19.08 11.04V10.1568L18.3166 10.5984C18.2484 10.6383 18.1729 10.6643 18.0945 10.6748C18.0161 10.6852 17.9365 10.6801 17.8601 10.6595C17.7837 10.639 17.7122 10.6035 17.6497 10.5551C17.5872 10.5067 17.5349 10.4464 17.4958 10.3776C17.417 10.2393 17.3959 10.0755 17.4372 9.92174C17.4786 9.76801 17.579 9.63684 17.7166 9.5568L18.48 9.12L17.7166 8.6784C17.5785 8.59884 17.4777 8.46766 17.4363 8.31374C17.3949 8.15981 17.4163 7.99574 17.4959 7.85762C17.5754 7.7195 17.7066 7.61864 17.8605 7.57724C18.0145 7.53584 18.1785 7.55727 18.3166 7.63684L19.08 8.0784V7.2C19.08 7.04087 19.1432 6.88826 19.2557 6.77574C19.3683 6.66321 19.5209 6.6 19.68 6.6C19.8391 6.6 19.9917 6.66321 20.1043 6.77574C20.2168 6.88826 20.28 7.04087 20.28 7.2V8.0784L21.0431 7.63684C21.1115 7.59744 21.187 7.5719 21.2653 7.56168C21.3435 7.55145 21.423 7.55674 21.4992 7.57724C21.5755 7.59774 21.6469 7.63305 21.7095 7.68116C21.772 7.72927 21.8245 7.78923 21.8639 7.85762C21.9033 7.92601 21.9288 8.00149 21.9391 8.07975C21.9493 8.15801 21.944 8.23752 21.9235 8.31374C21.903 8.38995 21.8677 8.46138 21.8196 8.52395C21.7715 8.58652 21.7115 8.639 21.6431 8.6784L20.88 9.12L21.6431 9.5568Z" fill="#8D5AE2"/>
</svg>
