<svg width="17" height="21" viewBox="0 0 17 21" fill="none" xmlns="http://www.w3.org/2000/svg">
<path d="M1 12.3508C1 10.4652 1 9.52234 1.58579 8.93656C2.17157 8.35077 3.11438 8.35077 5 8.35077H11.67C13.5556 8.35077 14.4984 8.35077 15.0842 8.93656C15.67 9.52234 15.67 10.4652 15.67 12.3508V13.3644C15.67 16.1928 15.67 17.6071 14.7913 18.4857C13.9126 19.3644 12.4984 19.3644 9.67 19.3644H6.99999C4.17157 19.3644 2.75736 19.3644 1.87868 18.4857C1 17.6071 1 16.1928 1 13.3644V12.3508Z" stroke="#8D5AE2" stroke-width="1.5"/>
<path d="M12.4608 8.35059L12.532 7.77962C12.7693 5.87921 11.9146 4.00701 10.3234 2.94203V2.94203C8.4288 1.67397 5.92143 1.82981 4.19938 3.32266L3.4478 3.97421" stroke="#8D5AE2" stroke-width="1.5" stroke-linecap="round"/>
<ellipse cx="8.33497" cy="13.8574" rx="1.83375" ry="1.83561" fill="#8D5AE2"/>
</svg>
