<svg width="25" height="24" viewBox="0 0 25 24" fill="none" xmlns="http://www.w3.org/2000/svg">
<path d="M23 12L23.7809 11.3753L24.2806 12L23.7809 12.6247L23 12ZM13.1 13C12.5477 13 12.1 12.5523 12.1 12C12.1 11.4477 12.5477 11 13.1 11V13ZM19.3809 5.8753L23.7809 11.3753L22.2191 12.6247L17.8191 7.1247L19.3809 5.8753ZM23.7809 12.6247L19.3809 18.1247L17.8191 16.8753L22.2191 11.3753L23.7809 12.6247ZM23 13H13.1V11H23V13Z" fill="#dc2626"/>
<path d="M14.1992 7.74513V6.58851C14.1992 4.97017 14.1992 4.161 13.7253 3.6015C13.2513 3.04201 12.4531 2.90899 10.8568 2.64293L7.98561 2.1644C4.74252 1.62388 3.12097 1.35363 2.06009 2.25232C0.999218 3.15102 0.999218 4.79493 0.999218 8.08276V15.9172C0.999218 19.2051 0.999218 20.849 2.06009 21.7477C3.12097 22.6464 4.74252 22.3761 7.98561 21.8356L10.8568 21.3571C12.4531 21.091 13.2513 20.958 13.7253 20.3985C14.1992 19.839 14.1992 19.0298 14.1992 17.4115V16.4726" stroke="#dc2626" stroke-width="2"/>
</svg>
