<svg width="20" height="25" viewBox="0 0 20 25" fill="none" xmlns="http://www.w3.org/2000/svg">
<path d="M10.625 9.94553C10.625 9.70684 10.7238 9.47792 10.8996 9.30914C11.0754 9.14035 11.3139 9.04553 11.5625 9.04553H15.9375C16.1861 9.04553 16.4246 9.14035 16.6004 9.30914C16.7762 9.47792 16.875 9.70684 16.875 9.94553C16.875 10.1842 16.7762 10.4131 16.6004 10.5819C16.4246 10.7507 16.1861 10.8455 15.9375 10.8455H11.5625C11.3139 10.8455 11.0754 10.7507 10.8996 10.5819C10.7238 10.4131 10.625 10.1842 10.625 9.94553ZM11.5625 15.6455C11.3139 15.6455 11.0754 15.7404 10.8996 15.9091C10.7238 16.0779 10.625 16.3068 10.625 16.5455C10.625 16.7842 10.7238 17.0131 10.8996 17.1819C11.0754 17.3507 11.3139 17.4455 11.5625 17.4455H15.9375C16.1861 17.4455 16.4246 17.3507 16.6004 17.1819C16.7762 17.0131 16.875 16.7842 16.875 16.5455C16.875 16.3068 16.7762 16.0779 16.6004 15.9091C16.4246 15.7404 16.1861 15.6455 15.9375 15.6455H11.5625ZM8.475 9.38153C8.56711 9.29914 8.64099 9.19978 8.69223 9.08938C8.74347 8.97898 8.77102 8.8598 8.77324 8.73896C8.77546 8.61812 8.75231 8.49808 8.70515 8.38601C8.658 8.27395 8.58782 8.17215 8.4988 8.08669C8.40977 8.00122 8.30373 7.93385 8.187 7.88859C8.07026 7.84332 7.94523 7.82109 7.81935 7.82322C7.69347 7.82535 7.56933 7.8518 7.45433 7.901C7.33933 7.95019 7.23583 8.02111 7.15 8.10953L5.3125 9.87353L4.725 9.30953C4.54728 9.15056 4.31222 9.06401 4.06935 9.06812C3.82647 9.07224 3.59474 9.16669 3.42297 9.33159C3.25121 9.49648 3.15282 9.71894 3.14853 9.95211C3.14425 10.1853 3.2344 10.4109 3.4 10.5815L4.65 11.7815C4.82578 11.9501 5.06406 12.0447 5.3125 12.0447C5.56094 12.0447 5.79922 11.9501 5.975 11.7815L8.475 9.38153ZM8.475 14.7095C8.65056 14.8783 8.74918 15.107 8.74918 15.3455C8.74918 15.584 8.65056 15.8128 8.475 15.9815L5.975 18.3815C5.79922 18.5501 5.56094 18.6447 5.3125 18.6447C5.06406 18.6447 4.82578 18.5501 4.65 18.3815L3.4 17.1815C3.30789 17.0991 3.23401 16.9998 3.18277 16.8894C3.13153 16.779 3.10398 16.6598 3.10176 16.539C3.09954 16.4181 3.1227 16.2981 3.16985 16.186C3.217 16.0739 3.28718 15.9721 3.3762 15.8867C3.46523 15.8012 3.57127 15.7339 3.688 15.6886C3.80474 15.6433 3.92977 15.6211 4.05565 15.6232C4.18153 15.6254 4.30567 15.6518 4.42067 15.701C4.53567 15.7502 4.63917 15.8211 4.725 15.9095L5.3125 16.4735L7.15 14.7095C7.32578 14.541 7.56406 14.4463 7.8125 14.4463C8.06094 14.4463 8.29922 14.541 8.475 14.7095ZM14.9925 2.54633C14.9401 1.86656 14.6218 1.23096 14.1016 0.767115C13.5813 0.303266 12.8975 0.0454923 12.1875 0.0455322H7.8125C7.1207 0.0455523 6.45318 0.290341 5.93755 0.733098C5.42193 1.17586 5.09437 1.78552 5.0175 2.44553H2.8125C2.06658 2.44553 1.35121 2.73 0.823762 3.23634C0.296316 3.74269 0 4.42945 0 5.14553V21.3455C0 22.0616 0.296316 22.7484 0.823762 23.2547C1.35121 23.7611 2.06658 24.0455 2.8125 24.0455H17.1875C17.5568 24.0455 17.9226 23.9757 18.2638 23.84C18.605 23.7043 18.9151 23.5054 19.1762 23.2547C19.4374 23.004 19.6446 22.7064 19.7859 22.3788C19.9273 22.0512 20 21.7001 20 21.3455V5.14553C20 4.79096 19.9273 4.43987 19.7859 4.11229C19.6446 3.78471 19.4374 3.48706 19.1762 3.23634C18.9151 2.98563 18.605 2.78675 18.2638 2.65106C17.9226 2.51537 17.5568 2.44553 17.1875 2.44553H14.9825L14.9925 2.54633ZM14.9925 2.56073L15 2.74553C15 2.68313 14.9963 2.62193 14.9925 2.56073ZM7.8125 5.44553H12.1875C13.1625 5.44553 14.0213 4.96913 14.5263 4.24553H17.1875C17.4361 4.24553 17.6746 4.34035 17.8504 4.50914C18.0262 4.67792 18.125 4.90684 18.125 5.14553V21.3455C18.125 21.5842 18.0262 21.8131 17.8504 21.9819C17.6746 22.1507 17.4361 22.2455 17.1875 22.2455H2.8125C2.56386 22.2455 2.3254 22.1507 2.14959 21.9819C1.97377 21.8131 1.875 21.5842 1.875 21.3455V5.14553C1.875 4.90684 1.97377 4.67792 2.14959 4.50914C2.3254 4.34035 2.56386 4.24553 2.8125 4.24553H5.47375C5.97875 4.96913 6.8375 5.44553 7.8125 5.44553ZM7.8125 1.84553H12.1875C12.4361 1.84553 12.6746 1.94035 12.8504 2.10914C13.0262 2.27792 13.125 2.50684 13.125 2.74553C13.125 2.98423 13.0262 3.21315 12.8504 3.38193C12.6746 3.55071 12.4361 3.64553 12.1875 3.64553H7.8125C7.56386 3.64553 7.3254 3.55071 7.14959 3.38193C6.97377 3.21315 6.875 2.98423 6.875 2.74553C6.875 2.50684 6.97377 2.27792 7.14959 2.10914C7.3254 1.94035 7.56386 1.84553 7.8125 1.84553Z" fill="#8D5AE2"/>
</svg>
