<svg width="34" height="20" viewBox="0 0 34 20" fill="none" xmlns="http://www.w3.org/2000/svg">
<path d="M33.1009 0H12.1431C11.6057 0 11.2116 0.430879 11.2116 0.933572V7.89946L13.0387 6.31957L13.0745 6.28366V1.90305H32.1695V18.061H13.0745V14.4345C12.4655 14.6858 11.8565 14.8294 11.1758 14.9013V19.0305C11.1758 19.5691 11.6057 19.9641 12.1072 19.9641H33.0651C33.6025 19.9641 33.9966 19.5332 33.9966 19.0305V0.969479C34.0324 0.430879 33.6025 0 33.1009 0Z" fill="#8D5AE2"/>
<path d="M16.2647 10.1973C17.0529 9.51503 17.0887 8.2942 16.2647 7.61198C15.6199 7.07338 14.6526 7.10928 14.0077 7.68379L11.9299 9.44322C11.2492 10.0177 10.3177 10.1254 9.52956 9.76638L8.31149 9.22778C7.55916 8.90462 6.771 8.72508 5.94702 8.72508H2.50778C1.11059 8.72508 0 9.83819 0 11.2385V18.8508C0 19.4612 0.501556 19.9998 1.14641 19.9998H6.73518C7.34421 19.9998 7.88159 19.4971 7.88159 18.8508V12.7466L8.13237 12.8543C10.1386 13.752 12.4672 13.4289 14.1152 12.0285L16.2647 10.1973Z" fill="#8D5AE2"/>
<path d="M3.94135 7.72008C6.01887 7.72008 7.70302 6.03211 7.70302 3.94988C7.70302 1.86766 6.01887 0.179688 3.94135 0.179688C1.86384 0.179688 0.179688 1.86766 0.179688 3.94988C0.179688 6.03211 1.86384 7.72008 3.94135 7.72008Z" fill="#8D5AE2"/>
<path d="M23.9321 6.49875H28.5894C29.1268 6.49875 29.5209 6.06788 29.5209 5.56518C29.5209 5.06249 29.091 4.5957 28.5536 4.5957H23.8963C23.3589 4.5957 22.9648 5.02658 22.9648 5.52928C22.9648 6.03197 23.3948 6.49875 23.9321 6.49875Z" fill="#8D5AE2"/>
<path d="M23.9315 10.916H28.5888C29.1261 10.916 29.5202 10.4851 29.5202 9.9824C29.5202 9.47971 29.0903 9.04883 28.5888 9.04883H23.9315C23.3941 9.04883 23 9.47971 23 9.9824C23 10.4851 23.3941 10.916 23.9315 10.916Z" fill="#8D5AE2"/>
<path d="M23.9336 15.3681H28.5909C29.1282 15.3681 29.5223 14.9372 29.5223 14.4346C29.5223 13.896 29.0924 13.501 28.5909 13.501H23.9336C23.3962 13.501 23.0021 13.9319 23.0021 14.4346C22.9663 14.9372 23.3962 15.3681 23.9336 15.3681Z" fill="#8D5AE2"/>
<path d="M19.6658 6.49875H20.5973C21.1347 6.49875 21.5288 6.06788 21.5288 5.56518C21.5288 5.06249 21.0989 4.5957 20.5973 4.5957H19.6658C19.1285 4.5957 18.7344 5.02658 18.7344 5.52928C18.7344 6.03197 19.1643 6.49875 19.6658 6.49875Z" fill="#8D5AE2"/>
<path d="M19.6658 10.916H20.5973C21.1347 10.916 21.5288 10.4851 21.5288 9.9824C21.5288 9.47971 21.0989 9.04883 20.5973 9.04883H19.6658C19.1285 9.04883 18.7344 9.47971 18.7344 9.9824C18.7344 10.4851 19.1643 10.916 19.6658 10.916Z" fill="#8D5AE2"/>
<path d="M19.6658 15.3681H20.5973C21.1347 15.3681 21.5288 14.9372 21.5288 14.4346C21.5288 13.896 21.0989 13.501 20.5973 13.501H19.6658C19.1285 13.501 18.7344 13.9319 18.7344 14.4346C18.7344 14.9372 19.1643 15.3681 19.6658 15.3681Z" fill="#8D5AE2"/>
</svg>
