<svg width="24" height="24" viewBox="0 0 24 24" fill="none" xmlns="http://www.w3.org/2000/svg">
<path d="M23.1429 22.2857V0.857143C23.1429 0.383371 22.7595 0 22.2857 0C21.8119 0 21.4286 0.383371 21.4286 0.857143V1.95394L20.5088 2.26057C20.384 1.94155 20.0778 1.71429 19.7143 1.71429H4.28571C3.92222 1.71429 3.61602 1.94155 3.49125 2.26057L2.57143 1.95394V0.857143C2.57143 0.383371 2.18806 0 1.71429 0C1.24051 0 0.857143 0.383371 0.857143 0.857143V22.2857C0.383371 22.2857 0 22.6691 0 23.1429C0 23.6166 0.383371 24 0.857143 24H2.57143C3.0452 24 3.42857 23.6166 3.42857 23.1429C3.42857 22.6691 3.0452 22.2857 2.57143 22.2857V13.4746L3.4913 13.168C3.61607 13.487 3.92228 13.7143 4.28571 13.7143H19.7143C20.0777 13.7143 20.384 13.487 20.5088 13.168L21.4286 13.4746V22.2857C20.9548 22.2857 20.5714 22.6691 20.5714 23.1429C20.5714 23.6166 20.9548 24 21.4286 24H23.1429C23.6166 24 24 23.6166 24 23.1429C24 22.6691 23.6166 22.2857 23.1429 22.2857ZM2.57143 3.76031L3.42857 4.04606V11.3825L2.57143 11.6683V3.76031ZM18.8571 12H5.14286V3.42857H18.8571V12ZM20.5714 11.3825V4.04606L21.4286 3.76031V11.6683L20.5714 11.3825Z" fill="#8D5AE2"/>
<path d="M6.85714 11.1429H12C12.4738 11.1429 12.8571 10.7595 12.8571 10.2857V5.14286C12.8571 4.66908 12.4738 4.28571 12 4.28571H6.85714C6.38337 4.28571 6 4.66908 6 5.14286V10.2857C6 10.7595 6.38337 11.1429 6.85714 11.1429ZM7.71429 6H11.1429V9.42857H7.71429V6Z" fill="#8D5AE2"/>
<path d="M14.5715 6H17.1429C17.6167 6 18.0001 5.61663 18.0001 5.14286C18.0001 4.66908 17.6167 4.28571 17.1429 4.28571H14.5715C14.0977 4.28571 13.7144 4.66908 13.7144 5.14286C13.7144 5.61663 14.0977 6 14.5715 6Z" fill="#8D5AE2"/>
<path d="M14.5715 8.57143H17.1429C17.6167 8.57143 18.0001 8.18806 18.0001 7.71429C18.0001 7.24051 17.6167 6.85714 17.1429 6.85714H14.5715C14.0977 6.85714 13.7144 7.24051 13.7144 7.71429C13.7144 8.18806 14.0977 8.57143 14.5715 8.57143Z" fill="#8D5AE2"/>
<path d="M14.5715 11.1429H17.1429C17.6167 11.1429 18.0001 10.7595 18.0001 10.2857C18.0001 9.81194 17.6167 9.42857 17.1429 9.42857H14.5715C14.0977 9.42857 13.7144 9.81194 13.7144 10.2857C13.7144 10.7595 14.0977 11.1429 14.5715 11.1429Z" fill="#8D5AE2"/>
</svg>
