<svg width="24" height="24" viewBox="0 0 24 24" fill="none" xmlns="http://www.w3.org/2000/svg">
<path d="M17.7141 11.4258C21.1863 11.4258 24.0012 14.2406 24.0012 17.7129C24.0012 21.1851 21.1863 24 17.7141 24C14.2418 24 11.4271 21.1851 11.4271 17.7129C11.4271 14.2406 14.2418 11.4258 17.7141 11.4258ZM14.6889 17.3087C14.4658 17.0855 14.1039 17.0855 13.8806 17.3087C13.6574 17.532 13.6574 17.8939 13.8806 18.117L16.1668 20.4032C16.3901 20.6265 16.752 20.6265 16.9751 20.4032L21.5475 15.8308C21.7708 15.6077 21.7708 15.2457 21.5475 15.0225C21.3244 14.7993 20.9625 14.7993 20.7393 15.0225L16.571 19.1907L14.6889 17.3087ZM11.4524 13.7112C11.1133 14.2408 10.8395 14.8163 10.6424 15.4262L2.5707 15.4266C2.09792 15.4266 1.71466 15.8099 1.71466 16.2827V16.9429C1.71466 17.5553 1.93312 18.1475 2.33075 18.6131C3.76342 20.2909 6.01063 21.1434 9.14084 21.1434C9.82259 21.1434 10.4626 21.1029 11.0615 21.0223C11.3418 21.588 11.6933 22.1123 12.1034 22.5843C11.1941 22.7674 10.2054 22.858 9.14084 22.858C5.54474 22.858 2.81728 21.8234 1.02683 19.7266C0.364091 18.9506 0 17.9635 0 16.9429V16.2827C0 14.8628 1.15094 13.7119 2.5707 13.7119L11.4524 13.7112ZM9.14084 0C12.2974 0 14.8564 2.55894 14.8564 5.71553C14.8564 8.87214 12.2974 11.4311 9.14084 11.4311C5.9842 11.4311 3.42526 8.87214 3.42526 5.71553C3.42526 2.55894 5.9842 0 9.14084 0ZM9.14084 1.71466C6.93118 1.71466 5.13992 3.50592 5.13992 5.71553C5.13992 7.92516 6.93118 9.71643 9.14084 9.71643C11.3505 9.71643 13.1417 7.92516 13.1417 5.71553C13.1417 3.50592 11.3505 1.71466 9.14084 1.71466Z" fill="#8D5AE2"/>
</svg>
