<svg width="12" height="13" viewBox="0 0 12 13" fill="none" xmlns="http://www.w3.org/2000/svg">
<path d="M10.7086 8.71904V6.96098C10.7086 6.73578 10.6183 6.51981 10.4576 6.36057C10.297 6.20133 10.0791 6.11187 9.85187 6.11187H6.42514V4.41367H7.28182C7.50896 4.41344 7.72673 4.32391 7.88734 4.16472C8.04795 4.00553 8.13828 3.78969 8.13851 3.56456V1.01725C8.13828 0.792128 8.04795 0.576286 7.88734 0.417097C7.72673 0.257908 7.50896 0.168377 7.28182 0.168152H4.71177C4.48463 0.168377 4.26686 0.257908 4.10625 0.417097C3.94564 0.576286 3.85531 0.792128 3.85508 1.01725V3.56456C3.85531 3.78969 3.94564 4.00553 4.10625 4.16472C4.26686 4.32391 4.48463 4.41344 4.71177 4.41367H5.56845V6.11187H2.14172C1.91451 6.11187 1.69661 6.20133 1.53595 6.36057C1.37529 6.51981 1.28503 6.73578 1.28503 6.96098V8.71947C0.88125 8.8228 0.529354 9.06855 0.295302 9.41064C0.061251 9.75274 -0.0388864 10.1677 0.0136602 10.5777C0.0662069 10.9878 0.26783 11.3647 0.580737 11.638C0.893643 11.9112 1.29635 12.062 1.71337 12.062C2.1304 12.062 2.5331 11.9112 2.84601 11.638C3.15892 11.3647 3.36054 10.9878 3.41309 10.5777C3.46563 10.1677 3.36549 9.75274 3.13144 9.41064C2.89739 9.06855 2.5455 8.8228 2.14172 8.71947V6.96098H5.56845V8.71947C5.16467 8.8228 4.81278 9.06855 4.57872 9.41064C4.34467 9.75274 4.24454 10.1677 4.29708 10.5777C4.34963 10.9878 4.55125 11.3647 4.86416 11.638C5.17706 11.9112 5.57977 12.062 5.99679 12.062C6.41382 12.062 6.81652 11.9112 7.12943 11.638C7.44234 11.3647 7.64396 10.9878 7.69651 10.5777C7.74905 10.1677 7.64892 9.75274 7.41487 9.41064C7.18081 9.06855 6.82892 8.8228 6.42514 8.71947V6.96098H9.85187V8.71904C9.44809 8.82238 9.0962 9.06812 8.86215 9.41022C8.62809 9.75231 8.52796 10.1673 8.5805 10.5773C8.63305 10.9873 8.83467 11.3643 9.14758 11.6375C9.46049 11.9108 9.86319 12.0615 10.2802 12.0615C10.6972 12.0615 11.0999 11.9108 11.4129 11.6375C11.7258 11.3643 11.9274 10.9873 11.9799 10.5773C12.0325 10.1673 11.9323 9.75231 11.6983 9.41022C11.4642 9.06812 11.1123 8.82238 10.7086 8.71904ZM4.71177 1.01725H7.28182L7.28225 3.56456H4.71177V1.01725ZM2.57006 10.3574C2.57006 10.5253 2.51981 10.6895 2.42568 10.8291C2.33155 10.9688 2.19775 11.0776 2.04121 11.1419C1.88467 11.2061 1.71242 11.2229 1.54624 11.1902C1.38006 11.1574 1.22741 11.0765 1.10761 10.9578C0.987796 10.839 0.906205 10.6878 0.873149 10.523C0.840094 10.3583 0.857059 10.1876 0.9219 10.0325C0.98674 9.8773 1.09654 9.74469 1.23742 9.65139C1.37831 9.55809 1.54394 9.50829 1.71337 9.50829C1.94051 9.50851 2.15828 9.59804 2.31889 9.75723C2.4795 9.91642 2.56983 10.1323 2.57006 10.3574ZM6.85348 10.3574C6.85348 10.5253 6.80324 10.6895 6.7091 10.8291C6.61497 10.9688 6.48117 11.0776 6.32463 11.1419C6.1681 11.2061 5.99584 11.2229 5.82966 11.1902C5.66348 11.1574 5.51084 11.0765 5.39103 10.9578C5.27122 10.839 5.18963 10.6878 5.15657 10.523C5.12352 10.3583 5.14048 10.1876 5.20532 10.0325C5.27016 9.8773 5.37997 9.74469 5.52085 9.65139C5.66173 9.55809 5.82736 9.50829 5.99679 9.50829C6.2239 9.50862 6.4416 9.59819 6.60219 9.75735C6.76277 9.91652 6.85314 10.1323 6.85348 10.3574ZM10.2802 11.2065C10.1108 11.2065 9.94515 11.1567 9.80427 11.0634C9.66339 10.9701 9.55358 10.8375 9.48874 10.6823C9.4239 10.5272 9.40694 10.3564 9.43999 10.1917C9.47305 10.027 9.55464 9.87573 9.67445 9.75698C9.79426 9.63823 9.94691 9.55736 10.1131 9.5246C10.2793 9.49184 10.4515 9.50865 10.6081 9.57292C10.7646 9.63719 10.8984 9.74602 10.9925 9.88565C11.0867 10.0253 11.1369 10.1895 11.1369 10.3574C11.1367 10.5825 11.0463 10.7984 10.8857 10.9575C10.7251 11.1167 10.5074 11.2063 10.2802 11.2065Z" fill="black"/>
</svg>
