<svg width="24" height="24" viewBox="0 0 24 24" fill="none" xmlns="http://www.w3.org/2000/svg">
<path d="M19.6542 15.8262C19.5598 15.7768 19.4501 15.7677 19.3491 15.8009C19.2481 15.834 19.1641 15.9068 19.1155 16.0032C18.5221 17.1807 17.6574 18.1929 16.5958 18.9527C16.5091 19.0151 16.4501 19.11 16.4318 19.2167C16.4135 19.3234 16.4374 19.4332 16.4982 19.5219C16.559 19.6107 16.6518 19.6712 16.7561 19.6901C16.8605 19.709 16.968 19.6848 17.055 19.6229C18.2229 18.7865 19.1744 17.6725 19.8275 16.377C19.8515 16.3292 19.8661 16.277 19.8704 16.2235C19.8747 16.1699 19.8686 16.1161 19.8525 16.0649C19.8364 16.0138 19.8106 15.9664 19.7766 15.9254C19.7426 15.8845 19.701 15.8508 19.6542 15.8262Z" fill="#8D5AE2"/>
<path d="M19.2004 12.2622C19.1982 10.3106 18.4387 8.43969 17.0883 7.05976C15.738 5.67982 13.9072 4.9036 11.9976 4.90137C2.44211 5.3058 2.44489 19.22 11.9977 19.6229C13.9073 19.6207 15.7381 18.8445 17.0884 17.4645C18.4387 16.0846 19.1982 14.2137 19.2004 12.2622ZM11.9976 18.8051C10.3001 18.8031 8.67277 18.1131 7.47249 16.8865C6.27221 15.6599 5.59704 13.9968 5.5951 12.2622C5.94688 3.58209 18.0496 3.58461 18.4001 12.2622C18.3981 13.9969 17.723 15.6599 16.5227 16.8865C15.3224 18.1131 13.695 18.8031 11.9976 18.8051Z" fill="#8D5AE2"/>
<path d="M16.945 11.0315C16.896 10.8771 16.8109 10.7373 16.6971 10.6242C16.5833 10.511 16.4442 10.428 16.2918 10.3821L14.0953 9.72041L12.8008 7.78996C12.7111 7.65602 12.5908 7.54646 12.4503 7.47075C12.3098 7.39504 12.1534 7.35547 11.9945 7.35547C11.8357 7.35547 11.6793 7.39504 11.5388 7.47075C11.3983 7.54646 11.278 7.65602 11.1883 7.78996L9.89362 9.72041L7.69726 10.3821C7.54495 10.4279 7.40587 10.511 7.29203 10.6241C7.1782 10.7372 7.09306 10.8769 7.04397 11.0312C6.99488 11.1855 6.98332 11.3497 7.01031 11.5096C7.03729 11.6694 7.10199 11.8202 7.19882 11.9488L8.59526 13.8037L8.53235 16.1431C8.52799 16.3053 8.56236 16.4662 8.63249 16.6118C8.70261 16.7573 8.80639 16.8833 8.93483 16.9787C9.06327 17.0741 9.21252 17.1361 9.36967 17.1593C9.52682 17.1825 9.68714 17.1663 9.83677 17.1119L11.9944 16.3276L14.1523 17.112C14.3019 17.1662 14.4622 17.1825 14.6194 17.1592C14.7765 17.136 14.9257 17.074 15.0541 16.9786C15.1826 16.8832 15.2863 16.7573 15.3564 16.6117C15.4265 16.4662 15.4609 16.3053 15.4565 16.1431L15.3936 13.8038L16.7901 11.9492C16.8869 11.8206 16.9517 11.6698 16.9787 11.5099C17.0057 11.35 16.9941 11.1858 16.945 11.0315ZM16.1558 11.4504L14.6726 13.4204C14.6165 13.4949 14.5873 13.5868 14.5898 13.6808L14.6566 16.1655C14.6584 16.1952 14.6528 16.2249 14.6404 16.2518C14.628 16.2788 14.6091 16.3021 14.5856 16.3196C14.562 16.3371 14.5345 16.3483 14.5056 16.352C14.4767 16.3558 14.4473 16.3521 14.4202 16.3412L12.1285 15.5082C12.0418 15.4768 11.9471 15.4768 11.8604 15.5082L9.5689 16.3412C9.54178 16.3521 9.5124 16.3558 9.48348 16.3521C9.45457 16.3483 9.42705 16.3371 9.40347 16.3196C9.37989 16.3021 9.361 16.2788 9.34856 16.2519C9.33612 16.2249 9.33052 16.1952 9.33228 16.1655L9.3991 13.6807C9.40164 13.5868 9.37238 13.4948 9.31627 13.4204L7.83307 11.45C7.81456 11.4271 7.80201 11.3997 7.79658 11.3705C7.79115 11.3413 7.79303 11.3112 7.80203 11.2829C7.81103 11.2546 7.82686 11.2291 7.84806 11.2088C7.86927 11.1884 7.89515 11.1739 7.92333 11.1664L10.2565 10.4636C10.3448 10.4371 10.4214 10.3803 10.4734 10.3027L11.8485 8.2524C11.8641 8.22727 11.8857 8.20658 11.9112 8.19225C11.9368 8.17791 11.9654 8.1704 11.9946 8.1704C12.0237 8.1704 12.0524 8.17791 12.0779 8.19225C12.1034 8.20658 12.125 8.22727 12.1406 8.2524L13.5156 10.3027C13.5675 10.3803 13.6442 10.4371 13.7324 10.4636L16.0658 11.1664C16.0939 11.1739 16.1198 11.1885 16.141 11.2089C16.1622 11.2294 16.178 11.2549 16.187 11.2832C16.1959 11.3115 16.1978 11.3416 16.1923 11.3709C16.1869 11.4001 16.1743 11.4275 16.1558 11.4504Z" fill="#8D5AE2"/>
<path d="M20.0712 14.6717C19.9714 14.6383 19.8627 14.6463 19.7687 14.6941C19.6746 14.7419 19.6028 14.8256 19.5686 14.9271C19.5345 15.0286 19.5407 15.1398 19.5861 15.2365C19.6315 15.3333 19.7123 15.408 19.8111 15.4444C19.9109 15.4778 20.0196 15.4697 20.1136 15.4219C20.2077 15.3741 20.2795 15.2905 20.3137 15.189C20.3479 15.0875 20.3416 14.9763 20.2962 14.8795C20.2508 14.7827 20.17 14.7081 20.0712 14.6717Z" fill="#8D5AE2"/>
<path d="M4.87732 8.52103C5.47071 7.34355 6.33548 6.33125 7.39705 5.57145C7.48164 5.50827 7.53863 5.41372 7.55577 5.30809C7.57292 5.20246 7.54886 5.09418 7.48876 5.00647C7.42866 4.91876 7.33731 4.85863 7.23431 4.83898C7.13132 4.81933 7.02489 4.84173 6.93787 4.90136C5.76996 5.73774 4.81847 6.85167 4.16532 8.14725C4.11682 8.24373 4.10781 8.35596 4.14027 8.45923C4.17274 8.56251 4.24402 8.64838 4.33844 8.69794C4.43285 8.74751 4.54267 8.75672 4.64373 8.72354C4.74479 8.69037 4.82881 8.61752 4.87732 8.52103Z" fill="#8D5AE2"/>
<path d="M4.17701 9.07724C4.07677 9.04439 3.96793 9.05303 3.87386 9.10131C3.7798 9.1496 3.70802 9.23367 3.67396 9.33545C3.63991 9.43724 3.64628 9.54861 3.69172 9.64565C3.73716 9.74268 3.81803 9.81762 3.91696 9.85437C4.0172 9.88723 4.12604 9.87858 4.22011 9.8303C4.31417 9.78202 4.38594 9.69795 4.42 9.59616C4.45406 9.49438 4.44769 9.383 4.40225 9.28597C4.35681 9.18893 4.27594 9.11399 4.17701 9.07724Z" fill="#8D5AE2"/>
<path d="M23.5991 7.70739C23.7042 7.70587 23.8046 7.66211 23.8784 7.58559C23.9522 7.50906 23.9936 7.40592 23.9936 7.29845C23.9936 7.19099 23.9522 7.08784 23.8784 7.01132C23.8046 6.93479 23.7042 6.89104 23.5991 6.88952C23.1217 6.88899 22.664 6.69494 22.3264 6.34995C21.9888 6.00496 21.7989 5.53721 21.7984 5.04932C21.7991 4.9877 21.7858 4.92675 21.7595 4.87125C21.7333 4.81575 21.6949 4.76721 21.6472 4.72944C21.5996 4.69166 21.544 4.66567 21.4849 4.6535C21.4258 4.64134 21.3647 4.64332 21.3065 4.65931C20.9923 4.45709 20.6441 4.31648 20.2795 4.24469C20.5747 4.13849 20.8852 4.08393 21.1982 4.0833C21.3043 4.0833 21.4061 4.04022 21.4811 3.96353C21.5562 3.88684 21.5983 3.78283 21.5983 3.67437C21.5983 3.56592 21.5562 3.4619 21.4811 3.38521C21.4061 3.30852 21.3043 3.26544 21.1982 3.26544C20.4555 3.26455 19.7436 2.96268 19.2184 2.42605C18.6933 1.88941 18.3979 1.16183 18.3971 0.402912C18.3955 0.295507 18.3527 0.19304 18.2778 0.11765C18.2029 0.0422601 18.102 0 17.9969 0C17.8918 0 17.7909 0.0422601 17.716 0.11765C17.6412 0.19304 17.5983 0.295507 17.5968 0.402912C17.5968 0.99307 17.4172 1.56863 17.0829 2.04981C16.2209 0.277083 15.1005 0.180473 13.468 1.10623C13.0169 1.38164 12.5155 1.56004 11.9946 1.63051C11.4736 1.56005 10.9722 1.38162 10.5211 1.10616C8.63143 0.0409534 7.62887 0.425211 6.72105 2.40452C6.5261 2.8764 6.24023 3.30337 5.88046 3.66001C5.43099 3.9063 4.93719 4.05658 4.42909 4.10169C2.30196 4.37514 1.65848 5.24965 2.06337 7.41631C2.17761 7.92813 2.18962 8.45824 2.0987 8.97492C1.88045 9.42791 1.57557 9.83162 1.20207 10.1622C-0.396762 11.6832 -0.404705 12.8376 1.20234 14.3641C1.57536 14.6943 1.87994 15.0974 2.09812 15.5498C2.18959 16.0668 2.17776 16.5974 2.06335 17.1096C1.66199 19.266 2.29236 20.1519 4.42917 20.4242C4.93723 20.4693 5.43101 20.6196 5.88046 20.8659C6.24047 21.2223 6.52654 21.6492 6.72159 22.1211C7.62969 24.0998 8.63926 24.4859 10.5211 23.4197C10.9722 23.144 11.4736 22.9654 11.9946 22.895C12.5156 22.9654 13.017 23.144 13.468 23.4197C15.3571 24.4853 16.3596 24.099 17.2675 22.121C17.4626 21.6492 17.7486 21.2223 18.1087 20.8659C18.5581 20.6196 19.0519 20.4693 19.56 20.4242C21.6842 20.1523 22.3319 19.2757 21.9257 17.1096C21.8115 16.5978 21.7995 16.0677 21.8904 15.551C22.3252 14.4665 24.042 13.5859 23.9992 12.2627C24.0066 10.9512 22.4288 10.073 21.88 9.02958C21.9886 8.64917 22.2147 8.31486 22.5246 8.07656C22.8344 7.83826 23.2113 7.70876 23.5991 7.70739ZM17.9969 2.08816C18.3415 2.76813 18.8839 3.32228 19.5493 3.67437C18.8903 4.03537 18.3502 4.58717 17.9969 5.26058C17.6523 4.58061 17.11 4.02646 16.4445 3.67437C17.1071 3.31828 17.6484 2.7652 17.9969 2.08816ZM22.2158 10.7352C22.6991 11.2388 23.1989 11.7596 23.1989 12.2627C23.1133 13.3317 21.4174 14.2196 21.1294 15.2982C20.9916 15.9333 20.993 16.5918 21.1337 17.2262C21.2298 17.9087 21.3293 18.614 21.0583 18.9954C20.3702 19.7854 18.4828 19.4958 17.637 20.2054C16.7233 20.8143 16.4123 22.7392 15.4565 23.1566C14.4506 23.3613 13.0907 22.0054 11.9946 22.0772C10.9004 22.0059 9.53662 23.3628 8.53327 23.1567C7.57547 22.7382 7.26791 20.8144 6.35209 20.2054C5.50707 19.4967 3.61663 19.7858 2.93064 18.995C2.65987 18.614 2.75932 17.9087 2.85545 17.2262C3.14784 15.6919 2.90807 14.8534 1.7737 13.7915C0.487423 12.5251 0.478392 12.0065 1.77384 10.7344C2.91121 9.672 3.14602 8.83076 2.85537 7.29962C2.5594 5.53609 2.82187 5.16176 4.56378 4.90799C6.09216 4.72309 6.78985 4.21352 7.43043 2.78295C8.19873 1.19785 8.60424 0.986753 10.1677 1.83982C13.4891 4.01283 14.9306 -0.839789 16.4999 2.66941C16.0122 3.05562 15.4127 3.26528 14.7957 3.26544C14.6905 3.26696 14.5902 3.31071 14.5163 3.38724C14.4425 3.46376 14.4011 3.56691 14.4011 3.67437C14.4011 3.78184 14.4425 3.88498 14.5163 3.96151C14.5902 4.03803 14.6905 4.08178 14.7957 4.0833C15.5383 4.08419 16.2503 4.38606 16.7754 4.9227C17.3005 5.45933 17.5959 6.18691 17.5968 6.94583C17.5983 7.05324 17.6412 7.1557 17.716 7.23109C17.7909 7.30648 17.8918 7.34874 17.9969 7.34874C18.102 7.34874 18.2029 7.30648 18.2778 7.23109C18.3527 7.1557 18.3955 7.05324 18.3971 6.94583C18.3972 6.55961 18.474 6.17744 18.6229 5.82248C18.7719 5.46752 18.9898 5.14717 19.2635 4.88085C19.8899 4.99162 20.6321 5.09851 20.9604 5.42318C20.8758 5.83723 20.6544 6.20894 20.3334 6.47594C20.0124 6.74293 19.6113 6.88896 19.1974 6.88952C19.0922 6.89104 18.9919 6.93479 18.9181 7.01132C18.8442 7.08784 18.8028 7.19099 18.8028 7.29845C18.8028 7.40592 18.8442 7.50906 18.9181 7.58559C18.9919 7.66211 19.0922 7.70587 19.1974 7.70739C19.6748 7.70792 20.1325 7.90196 20.4701 8.24695C20.8077 8.59194 20.9976 9.05969 20.9981 9.54758C20.9977 9.61129 21.0121 9.67418 21.0401 9.73108C21.0682 9.78798 21.109 9.83727 21.1594 9.87488C21.2097 9.91248 21.268 9.93734 21.3296 9.9474C21.3911 9.95747 21.4542 9.95244 21.5134 9.93275C21.7307 10.2151 21.9653 10.4832 22.2158 10.7352ZM21.3982 8.13229C21.1902 7.79589 20.9115 7.51105 20.5823 7.29845C20.9115 7.08585 21.1902 6.80101 21.3982 6.46462C21.6063 6.80101 21.885 7.08585 22.2142 7.29845C21.885 7.51105 21.6063 7.79589 21.3982 8.13229Z" fill="#8D5AE2"/>
</svg>
