<svg width="24" height="24" viewBox="0 0 24 24" fill="none" xmlns="http://www.w3.org/2000/svg">
<path d="M10.3049 0H3.11013C1.39956 0 0 1.39595 0 3.10211V10.2783C0 11.9845 1.39956 13.3804 3.11013 13.3804H10.3049C12.0155 13.3804 13.415 11.9845 13.415 10.2783V3.10211C13.415 1.39595 12.0155 0 10.3049 0ZM11.3416 10.2783C11.3416 10.847 10.8751 11.3124 10.3049 11.3124H3.11013C2.53994 11.3124 2.07342 10.847 2.07342 10.2783V3.10211C2.07342 2.53339 2.53994 2.06807 3.11013 2.06807H10.3049C10.8751 2.06807 11.3416 2.53339 11.3416 3.10211V10.2783Z" fill="#8D5AE2"/>
<path d="M20.8897 4.34296H18.0491C16.3385 4.34296 14.939 5.7389 14.939 7.44506V10.2783C14.939 11.9845 16.3385 13.3804 18.0491 13.3804H20.8897C22.6003 13.3804 23.9998 11.9845 23.9998 10.2783V7.44506C23.9998 5.7389 22.6003 4.34296 20.8897 4.34296ZM21.9264 10.2783C21.9264 10.847 21.4599 11.3124 20.8897 11.3124H18.0491C17.4789 11.3124 17.0124 10.847 17.0124 10.2783V7.44506C17.0124 6.87634 17.4789 6.41103 18.0491 6.41103H20.8897C21.4599 6.41103 21.9264 6.87634 21.9264 7.44506V10.2783Z" fill="#8D5AE2"/>
<path d="M20.8897 14.9625H18.0491C16.3385 14.9625 14.939 16.3585 14.939 18.0646V20.8979C14.939 22.604 16.3385 24 18.0491 24H20.8897C22.6003 24 23.9998 22.604 23.9998 20.8979V18.0646C23.9998 16.3585 22.6003 14.9625 20.8897 14.9625ZM21.9264 20.8979C21.9264 21.4666 21.4599 21.9319 20.8897 21.9319H18.0491C17.4789 21.9319 17.0124 21.4666 17.0124 20.8979V18.0646C17.0124 17.4959 17.4789 17.0306 18.0491 17.0306H20.8897C21.4599 17.0306 21.9264 17.4959 21.9264 18.0646V20.8979Z" fill="#8D5AE2"/>
<path d="M10.3052 14.9625H7.46462C5.75405 14.9625 4.35449 16.3585 4.35449 18.0646V20.8979C4.35449 22.604 5.75405 24 7.46462 24H10.3052C12.0158 24 13.4153 22.604 13.4153 20.8979V18.0646C13.4153 16.3585 12.0158 14.9625 10.3052 14.9625ZM11.3419 20.8979C11.3419 21.4666 10.8754 21.9319 10.3052 21.9319H7.46462C6.89443 21.9319 6.42791 21.4666 6.42791 20.8979V18.0646C6.42791 17.4959 6.89443 17.0306 7.46462 17.0306H10.3052C10.8754 17.0306 11.3419 17.4959 11.3419 18.0646V20.8979Z" fill="#8D5AE2"/>
</svg>
