<svg width="60" height="60" viewBox="0 0 60 60" fill="none" xmlns="http://www.w3.org/2000/svg">
<circle cx="30" cy="30.0001" r="30" fill="#8D5AE2"/>
<path d="M32.7317 19.0741C32.8469 18.9275 33.0614 18.908 33.2011 19.0314L34.3959 20.0873L30.6335 24.8001H33.1255L35.857 21.3785L38.0005 23.2725C38.1323 23.389 38.1476 23.5895 38.0348 23.7246L37.1382 24.8001H39.6604C40.3012 23.8627 40.1551 22.5765 39.2875 21.8099L34.4882 17.5689C33.5106 16.7051 32.0096 16.8415 31.2032 17.8673L25.7529 24.8001H28.2303L32.7317 19.0741ZM35.1892 33.9002C34.6519 33.9002 34.2162 34.3367 34.2162 34.8752C34.2162 35.4136 34.6519 35.8502 35.1892 35.8502H37.7838C38.3212 35.8502 38.7568 35.4136 38.7568 34.8752C38.7568 34.3367 38.3212 33.9002 37.7838 33.9002H35.1892ZM19.9459 25.1251C19.9459 24.5867 20.3816 24.1501 20.9189 24.1501H24.9774L26.5233 22.2001H20.9189C19.3068 22.2001 18 23.5097 18 25.1251V38.7752C18 41.1085 19.8877 43.0001 22.2162 43.0001H37.7838C40.1123 43.0001 42 41.1085 42 38.7752V30.3251C42 27.9917 40.1123 26.1002 37.7838 26.1002H20.9189C20.3816 26.1002 19.9459 25.6636 19.9459 25.1251ZM19.9459 38.7752V27.8837C20.2503 27.9914 20.5778 28.0502 20.9189 28.0502H37.7838C39.0377 28.0502 40.0541 29.0687 40.0541 30.3251V38.7752C40.0541 40.0316 39.0377 41.0501 37.7838 41.0501H22.2162C20.9624 41.0501 19.9459 40.0316 19.9459 38.7752Z" fill="white"/>
</svg>
