<svg width="24" height="21" viewBox="0 0 24 21" fill="none" xmlns="http://www.w3.org/2000/svg">
<path d="M5.538 16.2968C4.986 16.2968 4.5252 16.1039 4.1556 15.718C3.7852 15.3322 3.6 14.8518 3.6 14.2768V2.06428C3.6 1.48928 3.7852 1.00928 4.1556 0.624282C4.526 0.239282 4.9868 0.0463656 5.538 0.0455322H22.062C22.614 0.0455322 23.0748 0.238449 23.4444 0.624282C23.8148 1.00928 24 1.4897 24 2.06553V14.2768C24 14.8518 23.8152 15.3322 23.4456 15.718C23.0752 16.103 22.614 16.2955 22.062 16.2955L5.538 16.2968ZM13.8 9.74678L4.8 2.76553V14.278C4.8 14.503 4.8692 14.6872 5.0076 14.8305C5.146 14.9739 5.3228 15.046 5.538 15.0468H22.062C22.2772 15.0468 22.454 14.9747 22.5924 14.8305C22.7308 14.6864 22.8 14.5022 22.8 14.278V2.76553L13.8 9.74678ZM13.8 8.22428L22.5696 1.44053C22.5232 1.3922 22.4732 1.35595 22.4196 1.33178C22.3652 1.30762 22.292 1.29553 22.2 1.29553H5.4C5.3232 1.29553 5.2464 1.31553 5.1696 1.35553C5.0928 1.39553 5.0312 1.4397 4.9848 1.48803L13.8 8.22428ZM1.938 20.0455C1.386 20.0455 0.9252 19.853 0.5556 19.468C0.1852 19.0822 0 18.6018 0 18.0268V6.15178H1.2V18.0268C1.2 18.2518 1.2692 18.436 1.4076 18.5793C1.546 18.7226 1.7228 18.7947 1.938 18.7955H19.662V20.0455H1.938ZM22.8 2.74303C22.8 2.5122 22.7732 2.28303 22.7196 2.05553C22.6652 1.82803 22.6152 1.62303 22.5696 1.44053C22.5232 1.3922 22.4732 1.35595 22.4196 1.33178C22.3652 1.30762 22.292 1.29553 22.2 1.29553H5.4C5.3232 1.29553 5.2464 1.31553 5.1696 1.35553C5.0928 1.39553 5.0312 1.4397 4.9848 1.48803C4.9384 1.67137 4.896 1.87262 4.8576 2.09178C4.8192 2.31095 4.8 2.52762 4.8 2.74178V1.29678H22.8V2.74303Z" fill="#8D5AE2"/>
</svg>
