<svg width="16" height="18" viewBox="0 0 16 18" fill="none" xmlns="http://www.w3.org/2000/svg">
<path d="M16 8.33376V16.3334C16 16.7754 15.8168 17.1993 15.4906 17.5119C15.1645 17.8244 14.7221 18 14.2609 18H1.73913C1.27788 18 0.83553 17.8244 0.50938 17.5119C0.183229 17.1993 0 16.7754 0 16.3334V8.33376C0 7.89175 0.183229 7.46784 0.50938 7.1553C0.83553 6.84275 1.27788 6.66716 1.73913 6.66716H3.82609C4.10283 6.66716 4.36825 6.77252 4.56394 6.96004C4.75963 7.14757 4.86957 7.40191 4.86957 7.66712C4.86957 7.93232 4.75963 8.18667 4.56394 8.3742C4.36825 8.56172 4.10283 8.66708 3.82609 8.66708H2.08696V16.0001H13.913V8.66708H12.1739C11.8972 8.66708 11.6318 8.56172 11.4361 8.3742C11.2404 8.18667 11.1304 7.93232 11.1304 7.66712C11.1304 7.40191 11.2404 7.14757 11.4361 6.96004C11.6318 6.77252 11.8972 6.66716 12.1739 6.66716H14.2609C14.7221 6.66716 15.1645 6.84275 15.4906 7.1553C15.8168 7.46784 16 7.89175 16 8.33376ZM5.26 5.0414L6.95652 3.41731V10.3337C6.95652 10.5989 7.06646 10.8532 7.26215 11.0407C7.45784 11.2283 7.72325 11.3336 8 11.3336C8.27675 11.3336 8.54216 11.2283 8.73785 11.0407C8.93354 10.8532 9.04348 10.5989 9.04348 10.3337V3.41731L10.74 5.0439C10.8371 5.13692 10.9523 5.2107 11.0791 5.26104C11.2059 5.31138 11.3419 5.33729 11.4791 5.33729C11.6164 5.33729 11.7523 5.31138 11.8791 5.26104C12.006 5.2107 12.1212 5.13692 12.2183 5.0439C12.3153 4.95088 12.3923 4.84046 12.4449 4.71893C12.4974 4.5974 12.5244 4.46714 12.5244 4.3356C12.5244 4.20405 12.4974 4.0738 12.4449 3.95227C12.3923 3.83074 12.3153 3.72031 12.2183 3.6273L8.74 0.294109C8.64306 0.200886 8.52786 0.126919 8.40103 0.0764496C8.27419 0.0259798 8.13821 0 8.00087 0C7.86353 0 7.72755 0.0259798 7.60071 0.0764496C7.47388 0.126919 7.35868 0.200886 7.26174 0.294109L3.78348 3.6273C3.68641 3.72031 3.60942 3.83074 3.55689 3.95227C3.50436 4.0738 3.47732 4.20405 3.47732 4.3356C3.47732 4.60126 3.58745 4.85605 3.78348 5.0439C3.97951 5.23175 4.24538 5.33729 4.52261 5.33729C4.79984 5.33729 5.06571 5.23175 5.26174 5.0439L5.26 5.0414Z" fill="white"/>
</svg>
