<svg width="25" height="25" viewBox="0 0 25 25"  xmlns="http://www.w3.org/2000/svg">
<path d="M3.30437 16.2051H3.34362V19.6048C3.34362 20.0418 3.60545 20.4357 4.00707 20.6031C4.14041 20.6588 4.2802 20.6853 4.41891 20.6853C4.69903 20.6853 4.97322 20.5756 5.17914 20.3687L6.15605 19.3871C6.49315 19.5016 6.84531 19.5653 7.20553 19.5653H15.6778L19.8209 23.7289C20.0268 23.9359 20.3015 24.0455 20.5811 24.0455C20.7198 24.0455 20.8596 24.0185 20.9929 23.9634C21.3945 23.7959 21.6564 23.4021 21.6564 22.9651V19.5659H21.6956C23.5182 19.5659 25 18.0765 25 16.2456V6.72555C25 4.89469 23.5177 3.40526 21.6956 3.40526H21.0994V3.36582C21.0994 1.53496 19.6171 0.0455322 17.795 0.0455322H3.30437C1.48175 0.0455322 0 1.53496 0 3.36582V12.8859C0 14.7167 1.48229 16.2062 3.30437 16.2062V16.2051ZM21.6956 5.56513C22.3322 5.56513 22.8494 6.08537 22.8494 6.72447V16.2445C22.8494 16.8842 22.3317 17.4039 21.6956 17.4039H20.5811C19.9875 17.4039 19.5058 17.8879 19.5058 18.4843V20.3557L16.8832 17.7204C16.6815 17.5179 16.4079 17.4039 16.1229 17.4039H8.12921L9.32224 16.2045H17.7945C19.6171 16.2045 21.0988 14.7151 21.0988 12.8842V5.56513H21.6956ZM2.15005 3.36474C2.15005 2.7251 2.6678 2.2054 3.30383 2.2054H17.7939C18.4305 2.2054 18.9477 2.72564 18.9477 3.36474V12.8848C18.9477 13.5244 18.43 14.0441 17.7939 14.0441H8.87653C8.59158 14.0441 8.31792 14.1581 8.1163 14.3607L5.49367 16.996V15.1246C5.49367 14.5282 5.01194 14.0441 4.41837 14.0441H3.30383C2.66726 14.0441 2.15005 13.5239 2.15005 12.8848V3.36474Z" />
</svg>
