<svg width="24" height="24" viewBox="0 0 24 24" fill="none" xmlns="http://www.w3.org/2000/svg">
<path fill-rule="evenodd" clip-rule="evenodd" d="M11.9998 8.34863C9.98432 8.34863 8.34766 9.9853 8.34766 12.0007C8.34766 14.0162 9.98432 15.6528 11.9998 15.6528C14.0152 15.6528 15.6519 14.0162 15.6519 12.0007C15.6519 9.9853 14.0152 8.34863 11.9998 8.34863ZM11.9998 9.39209C13.4397 9.39209 14.6084 10.5608 14.6084 12.0007C14.6084 13.4407 13.4397 14.6094 11.9998 14.6094C10.5598 14.6094 9.39112 13.4407 9.39112 12.0007C9.39112 10.5608 10.5598 9.39209 11.9998 9.39209Z" fill="#8D5AE2"/>
<path fill-rule="evenodd" clip-rule="evenodd" d="M6.26076 19.3049C5.81207 18.9684 5.26321 18.7832 4.69557 18.7832C4.0241 18.7832 3.28012 18.7832 2.60865 18.7832C1.91684 18.7832 1.2532 19.0582 0.763815 19.547C0.274954 20.0364 0 20.7 0 21.3919V22.4353C0 23.2998 0.700683 24.0005 1.56519 24.0005H22.4344C23.2989 24.0005 23.9996 23.2998 23.9996 22.4353V21.3919C23.9996 20.7 23.7246 20.0364 23.2358 19.547C22.7464 19.0582 22.0827 18.7832 21.3909 18.7832C20.7195 18.7832 19.9755 18.7832 19.304 18.7832C18.7364 18.7832 18.1875 18.9684 17.7388 19.3049C17.7388 18.6131 17.4639 17.9495 16.975 17.4601C16.4856 16.9712 15.822 16.6963 15.1302 16.6963C13.3114 16.6963 10.6882 16.6963 8.86941 16.6963C8.17759 16.6963 7.51396 16.9712 7.02457 17.4601C6.53571 17.9495 6.26076 18.6131 6.26076 19.3049ZM16.6954 19.3049V22.4353C16.6954 22.5736 16.6406 22.7066 16.5425 22.8042C16.4449 22.9023 16.3119 22.957 16.1736 22.957H7.82595C7.68769 22.957 7.55465 22.9023 7.45708 22.8042C7.359 22.7066 7.30422 22.5736 7.30422 22.4353V19.3049C7.30422 18.8896 7.46908 18.4916 7.76282 18.1983C8.05603 17.9046 8.45411 17.7397 8.86941 17.7397C10.6882 17.7397 13.3114 17.7397 15.1302 17.7397C15.5455 17.7397 15.9435 17.9046 16.2368 18.1983C16.5305 18.4916 16.6954 18.8896 16.6954 19.3049ZM6.26076 21.3919V22.4353C6.26076 22.7233 6.02702 22.957 5.73903 22.957H1.56519C1.27719 22.957 1.04346 22.7233 1.04346 22.4353V21.3919C1.04346 20.9766 1.20833 20.5785 1.50206 20.2853C1.79527 19.9915 2.19335 19.8267 2.60865 19.8267H4.69557C5.11087 19.8267 5.50895 19.9915 5.80216 20.2853C6.09589 20.5785 6.26076 20.9766 6.26076 21.3919ZM17.7388 22.4353V21.3919C17.7388 20.9766 17.9037 20.5785 18.1974 20.2853C18.4906 19.9915 18.8887 19.8267 19.304 19.8267H21.3909C21.8062 19.8267 22.2043 19.9915 22.4975 20.2853C22.7912 20.5785 22.9561 20.9766 22.9561 21.3919V22.4353C22.9561 22.7233 22.7224 22.957 22.4344 22.957H18.2605C17.9725 22.957 17.7388 22.7233 17.7388 22.4353Z" fill="#8D5AE2"/>
<path fill-rule="evenodd" clip-rule="evenodd" d="M3.65162 12.5215C2.21164 12.5215 1.04297 13.6902 1.04297 15.1301C1.04297 16.5701 2.21164 17.7388 3.65162 17.7388C5.09159 17.7388 6.26027 16.5701 6.26027 15.1301C6.26027 13.6902 5.09159 12.5215 3.65162 12.5215ZM3.65162 13.5649C4.5156 13.5649 5.21681 14.2661 5.21681 15.1301C5.21681 15.9941 4.5156 16.6953 3.65162 16.6953C2.78763 16.6953 2.08643 15.9941 2.08643 15.1301C2.08643 14.2661 2.78763 13.5649 3.65162 13.5649Z" fill="#8D5AE2"/>
<path fill-rule="evenodd" clip-rule="evenodd" d="M20.3469 12.5225C18.907 12.5225 17.7383 13.6911 17.7383 15.1311C17.7383 16.5711 18.907 17.7398 20.3469 17.7398C21.7869 17.7398 22.9556 16.5711 22.9556 15.1311C22.9556 13.6911 21.7869 12.5225 20.3469 12.5225ZM20.3469 13.5659C21.2109 13.5659 21.9121 14.2671 21.9121 15.1311C21.9121 15.9951 21.2109 16.6963 20.3469 16.6963C19.4829 16.6963 18.7817 15.9951 18.7817 15.1311C18.7817 14.2671 19.4829 13.5659 20.3469 13.5659Z" fill="#8D5AE2"/>
<path fill-rule="evenodd" clip-rule="evenodd" d="M3.06915 10.974C2.96323 10.5519 2.6841 10.1846 2.28707 9.9733C2.10185 9.87469 1.8963 9.76512 1.70639 9.6613C1.70482 9.66025 1.70326 9.65921 1.70169 9.65817C1.48778 9.54443 1.38083 9.29765 1.44448 9.06391C1.52848 8.76183 1.62552 8.46341 1.73248 8.16863C1.8196 7.9422 2.05125 7.80498 2.29177 7.8389C2.29229 7.8389 2.29229 7.8389 2.29229 7.8389C2.50985 7.86916 2.7441 7.90202 2.95592 7.92863C3.56322 8.01159 4.16321 7.73142 4.48981 7.2123C4.68285 6.90969 4.89572 6.61648 5.12737 6.33892C5.12737 6.33892 5.12737 6.33892 5.12789 6.33892C5.52232 5.86572 5.60319 5.2052 5.33345 4.65113C5.24163 4.46226 5.13989 4.25305 5.04754 4.0574C5.0465 4.05583 5.04546 4.05427 5.04494 4.05218C4.93903 3.8341 4.99746 3.57219 5.18632 3.42036C5.43206 3.22524 5.68562 3.04107 5.94544 2.86524C6.14892 2.73325 6.41709 2.75881 6.59186 2.92733C6.74995 3.0802 6.92055 3.24402 7.07603 3.3901C7.51898 3.81427 8.16905 3.94053 8.73826 3.71254C9.07217 3.58106 9.4165 3.46889 9.76763 3.38072C10.365 3.22994 10.8189 2.74316 10.9264 2.13639C10.9629 1.92926 11.0036 1.70022 11.0438 1.48788C11.0443 1.48579 11.0443 1.4837 11.0448 1.48214C11.0871 1.24319 11.289 1.0658 11.5311 1.0538C11.8441 1.04076 12.1577 1.04076 12.4712 1.0512C12.7138 1.06372 12.9152 1.24214 12.9575 1.4811C12.9575 1.48162 12.958 1.48162 12.958 1.48162C12.9961 1.69814 13.0373 1.93083 13.0775 2.14057C13.186 2.74369 13.6378 3.22785 14.2331 3.37811C14.5801 3.46784 14.9249 3.5795 15.2604 3.71462H15.2609C15.8327 3.94418 16.4854 3.81636 16.9294 3.38906C17.0807 3.2435 17.2482 3.08176 17.4058 2.93307C17.4068 2.93203 17.4084 2.93046 17.4099 2.92942C17.5842 2.7609 17.8518 2.73586 18.0548 2.8689C18.3157 3.04211 18.5697 3.22628 18.817 3.41932C19.0059 3.57166 19.0643 3.83462 18.9579 4.05323C18.8619 4.25096 18.7581 4.46383 18.6668 4.65687C18.4002 5.20886 18.4816 5.86623 18.8744 6.33736C19.1024 6.61387 19.3158 6.90708 19.5078 7.21334C19.5083 7.21334 19.5083 7.21334 19.5083 7.21334C19.836 7.73507 20.4391 8.01576 21.0495 7.93072C21.2577 7.90202 21.4878 7.86968 21.7027 7.84203C21.7043 7.84203 21.7064 7.84151 21.7085 7.84151C21.9485 7.80812 22.1796 7.9448 22.2657 8.17124C22.3752 8.46497 22.4723 8.7634 22.5589 9.06496C22.622 9.29921 22.5145 9.54652 22.3001 9.66025V9.66078C22.105 9.76408 21.8958 9.87573 21.7085 9.97904C21.3182 10.1867 21.0391 10.5529 20.9337 10.9745C20.8638 11.2536 21.0333 11.5374 21.313 11.6073C21.5921 11.6773 21.8759 11.5077 21.9459 11.2281C21.9808 11.0882 22.0737 10.9667 22.2051 10.8968C22.2072 10.8952 22.2088 10.8941 22.2109 10.8931C22.3945 10.7924 22.5996 10.6834 22.7905 10.5816C23.4359 10.2378 23.7573 9.4933 23.5648 8.78792C23.5643 8.78531 23.5637 8.78323 23.5632 8.78114C23.4683 8.45193 23.3623 8.12585 23.2423 7.80498C23.2423 7.80394 23.2418 7.80342 23.2418 7.80237C22.9841 7.12151 22.2907 6.70935 21.5697 6.80743C21.3511 6.83509 21.1168 6.86796 20.905 6.8977C20.702 6.92587 20.5007 6.83248 20.3916 6.65822C20.1756 6.31388 19.9361 5.98467 19.6774 5.67111C19.6768 5.67007 19.6763 5.66954 19.6758 5.6685C19.5449 5.51198 19.5182 5.29286 19.6075 5.10921C19.6085 5.10712 19.6095 5.10503 19.6101 5.10294C19.6998 4.91303 19.801 4.70435 19.896 4.50974C20.2158 3.85288 20.0384 3.06142 19.4682 2.60386C19.4661 2.6023 19.4645 2.60073 19.4624 2.59917C19.1922 2.38839 18.9151 2.18699 18.6297 1.99813C18.6287 1.99761 18.6282 1.99709 18.6276 1.99657C18.0188 1.59692 17.2153 1.67101 16.6894 2.17395C16.5293 2.32526 16.3592 2.4896 16.2053 2.63777C16.0576 2.7802 15.8395 2.82246 15.6491 2.74629C15.2719 2.59447 14.8848 2.46873 14.4909 2.36699C14.4903 2.36699 14.4893 2.36647 14.4882 2.36647C14.29 2.31639 14.1397 2.15465 14.1037 1.95379C14.1037 1.95118 14.1032 1.94909 14.1027 1.947C14.0636 1.74092 14.0229 1.5124 13.9853 1.29954C13.858 0.579551 13.2491 0.0437346 12.5187 0.00877875C12.5161 0.00877875 12.514 0.00825333 12.5114 0.00825333C12.1692 -0.00322473 11.8264 -0.00322645 11.4841 0.011382C11.4836 0.011382 11.4826 0.011382 11.482 0.011382C10.7547 0.0463379 10.148 0.578502 10.0186 1.29432C9.97737 1.51083 9.93615 1.74405 9.89911 1.9543C9.86311 2.15621 9.71181 2.31847 9.51303 2.36856C9.1186 2.46769 8.73147 2.59342 8.35322 2.74264C8.35218 2.74316 8.35113 2.74368 8.35009 2.74368C8.1607 2.81985 7.94419 2.77759 7.79706 2.63568C7.79549 2.63412 7.79393 2.63256 7.79184 2.63099C7.63898 2.48752 7.47202 2.3263 7.31654 2.17604C6.79012 1.66892 5.98249 1.59275 5.37102 1.99396C5.36945 1.99552 5.36737 1.99656 5.36528 1.99813C5.08146 2.1896 4.80441 2.39151 4.53572 2.60438C4.5352 2.6049 4.53468 2.60543 4.53416 2.60595C3.966 3.06142 3.78809 3.84871 4.10425 4.504C4.19817 4.70278 4.30199 4.91564 4.39538 5.10764C4.48512 5.29233 4.45799 5.51251 4.32652 5.67007C4.06617 5.98206 3.82669 6.31127 3.60809 6.65457C3.60757 6.65509 3.60705 6.65614 3.60653 6.65718C3.49801 6.82987 3.29766 6.92326 3.09523 6.89457C3.09315 6.89457 3.09106 6.89404 3.08845 6.89404C2.8808 6.86743 2.65072 6.83561 2.43629 6.80535C1.71265 6.70413 1.01457 7.11734 0.755793 7.80133C0.754749 7.80394 0.754225 7.80603 0.753182 7.80811C0.636314 8.13002 0.530405 8.4561 0.43858 8.78636C0.43858 8.78688 0.438585 8.78792 0.438063 8.78844C0.246588 9.49069 0.564843 10.2321 1.20605 10.5764C1.39909 10.6823 1.60778 10.7935 1.79664 10.8941C1.92864 10.9646 2.02151 11.0867 2.05699 11.2275C2.1269 11.5067 2.41072 11.6767 2.68985 11.6068C2.96897 11.5369 3.13906 11.2531 3.06915 10.974Z" fill="#8D5AE2"/>
<path fill-rule="evenodd" clip-rule="evenodd" d="M18.7622 11.4874C18.4998 7.98346 15.5697 5.21777 11.999 5.21777C8.4283 5.21777 5.49827 7.98346 5.23584 11.4874C5.21445 11.7744 5.42992 12.0248 5.71687 12.0467C6.00435 12.0681 6.25478 11.8526 6.27617 11.5651C6.49843 8.60067 8.97768 6.26123 11.999 6.26123C15.0204 6.26123 17.4996 8.60067 17.7219 11.5651C17.7433 11.8526 17.9937 12.0681 18.2812 12.0467C18.5681 12.0248 18.7836 11.7744 18.7622 11.4874Z" fill="#8D5AE2"/>
</svg>
