<svg width="60" height="60" viewBox="0 0 60 60" fill="none" xmlns="http://www.w3.org/2000/svg">
<circle cx="30" cy="30.0001" r="30" fill="#8D5AE2"/>
<path d="M41.0451 21.7148C42.1838 22.1149 43 23.1997 43 24.4751V37.4751C43 40.5265 40.5264 43.0001 37.4751 43.0001H24.475C23.1996 43.0001 22.1148 42.1839 21.7147 41.0453L24.4412 41.0497L37.4751 41.0501C39.4495 41.0501 41.05 39.4496 41.05 37.4751V24.4751L41.0448 24.4089L41.0451 21.7148ZM36.8209 17.0001C38.4364 17.0001 39.7459 18.3097 39.7459 19.9251V36.821C39.7459 38.4365 38.4364 39.746 36.8209 39.746H19.925C18.3096 39.746 17 38.4365 17 36.821V19.9251C17 18.3097 18.3096 17.0001 19.925 17.0001H36.8209ZM36.8209 18.9501H19.925C19.3865 18.9501 18.95 19.3867 18.95 19.9251V36.821C18.95 37.3594 19.3865 37.796 19.925 37.796H36.8209C37.3593 37.796 37.7959 37.3594 37.7959 36.821V19.9251C37.7959 19.3867 37.3593 18.9501 36.8209 18.9501ZM26.8555 29.1658L31.9106 24.1107C32.2914 23.7299 32.9087 23.7299 33.2894 24.1107C33.6356 24.4569 33.6671 24.9985 33.3838 25.3802L33.2894 25.4896L27.4394 31.3396C27.0549 31.7242 26.4398 31.7147 26.0657 31.3449L25.97 31.2351L24.02 28.6352C23.6969 28.2043 23.7842 27.5932 24.215 27.2702C24.6066 26.9764 25.1473 27.0218 25.4852 27.3562L25.58 27.4652L26.8555 29.1658Z" fill="white"/>
</svg>
