<svg width="26" height="26" viewBox="0 0 26 26" fill="none" xmlns="http://www.w3.org/2000/svg">
<path d="M13.8966 14.5271L9.87158 10.5012L11.2129 9.15983L13.8966 11.8425L19.2619 6.4762L20.6042 7.81849L13.8966 14.5271Z" fill="#8D5AE2"/>
<path fill-rule="evenodd" clip-rule="evenodd" d="M5.12891 3.79447C5.12891 2.78811 5.52868 1.82297 6.24028 1.11137C6.95188 0.399773 7.91702 0 8.92337 0H22.204C23.2104 0 24.1755 0.399773 24.8871 1.11137C25.5987 1.82297 25.9985 2.78811 25.9985 3.79447V17.0751C25.9985 18.0815 25.5987 19.0466 24.8871 19.7582C24.1755 20.4698 23.2104 20.8696 22.204 20.8696H8.92337C7.91702 20.8696 6.95188 20.4698 6.24028 19.7582C5.52868 19.0466 5.12891 18.0815 5.12891 17.0751V3.79447ZM8.92337 1.89723H22.204C22.7072 1.89723 23.1898 2.09712 23.5456 2.45292C23.9014 2.80872 24.1012 3.29129 24.1012 3.79447V17.0751C24.1012 17.5783 23.9014 18.0608 23.5456 18.4166C23.1898 18.7724 22.7072 18.9723 22.204 18.9723H8.92337C8.4202 18.9723 7.93763 18.7724 7.58183 18.4166C7.22603 18.0608 7.02614 17.5783 7.02614 17.0751V3.79447C7.02614 3.29129 7.22603 2.80872 7.58183 2.45292C7.93763 2.09712 8.4202 1.89723 8.92337 1.89723Z" fill="#8D5AE2"/>
<path d="M2 3.13049V21.0001C2 22.6569 3.34314 24.0001 5 24.0001H22.8696" stroke="#8D5AE2" stroke-width="2.5"/>
</svg>
