<svg width="25" height="25" viewBox="0 0 25 25" fill="none" xmlns="http://www.w3.org/2000/svg">
<path d="M4.26478 12.0376L0.0679011 1.30598C-0.224186 0.559077 0.503293 -0.157119 1.22476 0.0955958L1.33849 0.143687L23.5074 11.1755C24.1457 11.4932 24.1872 12.3661 23.63 12.7553L23.5105 12.8264L1.38372 23.9424C0.667082 24.3024 -0.11342 23.6444 0.0713848 22.9026L0.108726 22.7849L4.26478 12.0376ZM2.6582 2.86196L5.88409 11.1109L14.039 11.0961C14.5062 11.0953 14.8929 11.4416 14.9548 11.892L14.9635 12.0172C14.9644 12.4844 14.6179 12.8712 14.1676 12.9331L14.0425 12.9418L5.8876 12.9566L2.69309 21.2192L21.0328 12.0057L2.6582 2.86196Z" fill="#8D5AE2"/>
</svg>
