<svg width="60" height="60" viewBox="0 0 60 60" fill="none" xmlns="http://www.w3.org/2000/svg">
<circle cx="30" cy="30.0001" r="30" fill="#8D5AE2"/>
<path d="M40.1053 39.2858C40.1053 39.6263 39.8223 39.9049 39.4736 39.9049H33.1579C33.1579 40.5695 33.0053 41.1992 32.7325 41.762H39.4736C40.8682 41.762 42 40.6527 42 39.2858V26.692C42 26.0357 41.7334 25.4056 41.2598 24.9413L33.8968 17.7256C33.8779 17.7071 33.8565 17.6911 33.8353 17.6751C33.8195 17.6633 33.804 17.6516 33.7894 17.639C33.6997 17.5597 33.6114 17.4817 33.5128 17.4161C33.4808 17.395 33.446 17.3783 33.4111 17.3617C33.391 17.3521 33.3707 17.3424 33.3511 17.3319C33.3301 17.3203 33.3091 17.3084 33.288 17.2964C33.2195 17.2576 33.1508 17.2186 33.0783 17.1883C32.8295 17.0868 32.5616 17.036 32.29 17.0175C32.2652 17.0159 32.2406 17.0126 32.2158 17.0093C32.1815 17.0047 32.1472 17.0001 32.112 17.0001H24.3158C22.9213 17.0001 21.7895 18.1095 21.7895 19.4763V28.1868C22.4868 28.2846 23.1316 28.5419 23.6842 28.9197V19.4763C23.6842 19.1358 23.9671 18.8573 24.3158 18.8573H31.8947V24.4287C31.8947 25.7955 33.0265 26.9049 34.4211 26.9049H40.1053V39.2858ZM33.7894 20.2452L38.688 25.0477H34.4211C34.0724 25.0477 33.7894 24.7692 33.7894 24.4287V20.2452ZM24.3158 32.4763C24.3158 34.1857 22.9019 35.5715 21.1579 35.5715C19.4138 35.5715 18 34.1857 18 32.4763C18 30.7668 19.4138 29.3811 21.1579 29.3811C22.9019 29.3811 24.3158 30.7668 24.3158 32.4763ZM22.421 32.4763C22.421 31.7925 21.8555 31.2382 21.1579 31.2382C20.4603 31.2382 19.8947 31.7925 19.8947 32.4763C19.8947 33.1601 20.4603 33.7144 21.1579 33.7144C21.8555 33.7144 22.421 33.1601 22.421 32.4763ZM31.8947 39.9049C31.8947 41.6143 30.4808 43.0001 28.7369 43.0001C26.9927 43.0001 25.5789 41.6143 25.5789 39.9049C25.5789 38.1954 26.9927 36.8097 28.7369 36.8097C30.4808 36.8097 31.8947 38.1954 31.8947 39.9049ZM30 39.9049C30 39.2211 29.4345 38.6668 28.7369 38.6668C28.0392 38.6668 27.4737 39.2211 27.4737 39.9049C27.4737 40.5887 28.0392 41.143 28.7369 41.143C29.4345 41.143 30 40.5887 30 39.9049ZM30.354 30.8912C30.7241 31.2538 30.7241 31.8417 30.354 32.2043L20.8804 41.49C20.5104 41.8526 19.9106 41.8526 19.5406 41.49C19.1707 41.1274 19.1707 40.5395 19.5406 40.1769L29.0143 30.8912C29.3843 30.5285 29.9841 30.5285 30.354 30.8912Z" fill="white"/>
</svg>
