<svg width="60" height="60" viewBox="0 0 60 60" fill="none" xmlns="http://www.w3.org/2000/svg">
<circle cx="30" cy="30.0001" r="30" fill="#8D5AE2"/>
<path d="M33.139 19.4754C32.9817 18.083 31.7771 17.0001 30.3147 17.0001H25.894C24.4315 17.0001 23.227 18.083 23.0696 19.4754L20.8418 19.4761C19.2723 19.4761 18 20.7232 18 22.2616V38.9744C18 40.5128 19.2723 41.7599 20.8418 41.7599H26.843C26.8339 41.5216 26.8588 41.2756 26.9224 41.0265L27.2089 39.9029H20.8418C20.3187 39.9029 19.8946 39.4872 19.8946 38.9744V22.2616C19.8946 21.7488 20.3187 21.3331 20.8418 21.3331L23.5309 21.3333C24.0407 22.0797 24.9088 22.5711 25.894 22.5711H30.3147C31.2998 22.5711 32.168 22.0797 32.6778 21.3333L35.3669 21.3331C35.8899 21.3331 36.3141 21.7488 36.3141 22.2616V29.2075C36.8662 28.712 37.5217 28.3894 38.2087 28.2396V22.2616C38.2087 20.7232 36.9363 19.4761 35.3669 19.4761L33.139 19.4754ZM33.1499 19.5949L33.1565 19.7856C33.1565 19.7215 33.1544 19.6579 33.1499 19.5949ZM25.894 18.8571H30.3147C30.8378 18.8571 31.2619 19.2728 31.2619 19.7856C31.2619 20.2984 30.8378 20.7141 30.3147 20.7141H25.894C25.3708 20.7141 24.9467 20.2984 24.9467 19.7856C24.9467 19.2728 25.3708 18.8571 25.894 18.8571ZM29.817 35.57H23.0522C22.529 35.57 22.1049 35.9857 22.1049 36.4985C22.1049 37.0113 22.529 37.427 23.0522 37.427H28.0828C28.2658 37.1437 28.4807 36.8797 28.7247 36.6406L29.817 35.57ZM28.1043 32.475H23.0522C22.529 32.475 22.1049 32.0593 22.1049 31.5465C22.1049 31.0338 22.529 30.618 23.0522 30.618H28.1043C28.6275 30.618 29.0516 31.0338 29.0516 31.5465C29.0516 32.0593 28.6275 32.475 28.1043 32.475ZM33.1565 27.5231H23.0522C22.529 27.5231 22.1049 27.1074 22.1049 26.5946C22.1049 26.0818 22.529 25.6661 23.0522 25.6661H33.1565C33.6797 25.6661 34.1038 26.0818 34.1038 26.5946C34.1038 27.1074 33.6797 27.5231 33.1565 27.5231ZM37.0718 30.2088L29.6167 37.516C29.1821 37.9419 28.8738 38.4758 28.7246 39.0604L28.1465 41.3268C27.8951 42.3124 28.8061 43.2052 29.8116 42.9587L32.1238 42.3921C32.7201 42.246 33.2647 41.9438 33.6995 41.5177L41.1544 34.2106C42.2819 33.1055 42.2819 31.3139 41.1544 30.2088C40.027 29.1037 38.1992 29.1037 37.0718 30.2088Z" fill="white"/>
</svg>
