<svg width="24" height="24" viewBox="0 0 24 24" fill="none" xmlns="http://www.w3.org/2000/svg">
<path d="M12 24C11.1733 24 10.3733 23.6 9.86667 22.9333C8.90667 21.6533 7.36 21.0133 5.78667 21.2267C4.96 21.3333 4.10667 21.0667 3.52 20.48C2.93333 19.8933 2.64 19.04 2.77333 18.2133C2.98667 16.64 2.34667 15.0933 1.06667 14.1333C0.4 13.6267 0 12.8267 0 12C0 11.1733 0.4 10.3733 1.06667 9.86667C2.34667 8.90667 2.98667 7.36 2.77333 5.78667C2.66667 4.96 2.93333 4.10667 3.52 3.52C4.10667 2.93333 4.96 2.64 5.78667 2.77333C7.36 2.98667 8.90667 2.34667 9.86667 1.06667C10.3733 0.4 11.1733 0 12 0C12.8267 0 13.6267 0.4 14.1333 1.06667C15.0933 2.34667 16.6667 2.98667 18.2133 2.77333C19.04 2.66667 19.8933 2.93333 20.48 3.52C21.0667 4.10667 21.36 4.96 21.2267 5.78667C21.0133 7.36 21.6533 8.90667 22.9333 9.86667C23.6 10.3733 24 11.1733 24 12C24 12.8267 23.6 13.6267 22.9333 14.1333C21.6533 15.0933 21.0133 16.64 21.2267 18.2133C21.3333 19.04 21.0667 19.8933 20.48 20.48C19.8933 21.0667 19.04 21.36 18.2133 21.2267C16.64 21.0133 15.0933 21.6533 14.1333 22.9333C13.6267 23.6 12.8267 24 12 24ZM6.4 19.0667C8.42667 19.0667 10.3467 20 11.5733 21.6533C11.68 21.7867 11.84 21.8667 12 21.8667C12.16 21.8667 12.32 21.7867 12.4267 21.6533C13.84 19.76 16.1867 18.8 18.5333 19.12C18.6933 19.1467 18.88 19.0933 18.9867 18.96C19.0933 18.8533 19.1733 18.6667 19.1467 18.5067C18.8 16.16 19.7867 13.84 21.68 12.4C21.8133 12.2933 21.8933 12.1333 21.8933 11.9733C21.8933 11.8133 21.8133 11.6533 21.68 11.5467C19.7867 10.1333 18.8267 7.78667 19.1467 5.44C19.1733 5.28 19.12 5.09333 18.9867 4.98667C18.88 4.88 18.6933 4.8 18.5333 4.82667C16.1867 5.14667 13.8667 4.18667 12.4267 2.29333C12.32 2.16 12.16 2.08 12 2.08C11.84 2.08 11.68 2.16 11.5733 2.29333C10.16 4.18667 7.81333 5.14667 5.46667 4.82667C5.30667 4.8 5.12 4.85333 5.01333 4.98667C4.90667 5.09333 4.82667 5.28 4.85333 5.44C5.2 7.78667 4.21333 10.1067 2.32 11.5467C2.18667 11.6533 2.10667 11.8133 2.10667 11.9733C2.10667 12.1333 2.18667 12.2933 2.32 12.4C4.21333 13.8133 5.17333 16.16 4.85333 18.5067C4.82667 18.6667 4.88 18.8533 5.01333 18.96C5.12 19.0667 5.30667 19.1467 5.46667 19.12C5.78667 19.0933 6.08 19.0667 6.4 19.0667ZM15.2 16.2667C14.6133 16.2667 14.1333 15.7867 14.1333 15.2C14.1333 14.6133 14.6133 14.1333 15.2 14.1333C15.7867 14.1333 16.2667 14.6133 16.2667 15.2C16.2667 15.7867 15.7867 16.2667 15.2 16.2667ZM8.8 16.2667C8.53333 16.2667 8.26667 16.16 8.05333 15.9467C7.62667 15.52 7.62667 14.8533 8.05333 14.4267L14.4533 8.02667C14.88 7.6 15.5467 7.6 15.9733 8.02667C16.4 8.45333 16.4 9.12 15.9733 9.54667L9.57333 15.9467C9.33333 16.16 9.06667 16.2667 8.8 16.2667ZM8.8 9.86667C8.21333 9.86667 7.73333 9.38667 7.73333 8.8C7.73333 8.21333 8.21333 7.73333 8.8 7.73333C9.38667 7.73333 9.86667 8.21333 9.86667 8.8C9.86667 9.38667 9.38667 9.86667 8.8 9.86667Z" fill="#8D5AE2"/>
</svg>
