<svg width="29" height="24" viewBox="0 0 29 24" fill="none" xmlns="http://www.w3.org/2000/svg">
<path d="M22.9555 2.40039H14.7389C12.5056 2.47009 12.5018 5.68943 14.7389 5.76039H22.9556C25.1888 5.69069 25.1927 2.47132 22.9555 2.40039ZM22.9556 4.80039H14.7389C13.7887 4.78431 13.7842 3.37738 14.7389 3.36039H22.9556C23.9058 3.37648 23.9103 4.78337 22.9556 4.80039Z" fill="#8D5AE2"/>
<path d="M0.966667 16.32V2.88C0.966667 1.82133 1.83397 0.96 2.9 0.96H24.1667C25.2327 0.96 26.1 1.82133 26.1 2.88V8.64H27.0667V2.88C27.0667 1.29188 25.7658 0 24.1667 0H2.9C1.30085 0 0 1.29188 0 2.88V16.32C0 17.9081 1.30085 19.2 2.9 19.2H13.5333V18.24H2.9C1.83397 18.24 0.966667 17.3789 0.966667 16.32Z" fill="#8D5AE2"/>
<path d="M27.0667 9.59961H16.4333C15.3673 9.59961 14.5 10.4607 14.5 11.5196V22.0796C14.5 23.1385 15.3673 23.9996 16.4333 23.9996H27.0667C28.1327 23.9996 29 23.1385 29 22.0796V11.5196C29 10.4607 28.1327 9.59961 27.0667 9.59961ZM18.7544 20.5974C18.5694 20.7886 18.2636 20.7948 18.0712 20.6115C17.0151 19.606 16.4333 18.2523 16.4333 16.7996C16.3803 13.9615 18.8915 11.4614 21.75 11.5196C22.308 11.558 24.0694 11.5746 23.8122 12.4303C23.7232 12.6807 23.4469 12.811 23.1958 12.7238C18.8621 11.1657 15.3825 16.7741 18.7402 19.9188C18.9328 20.102 18.9392 20.4062 18.7544 20.5974ZM19.937 15.2129C19.1973 16.0217 19.1317 17.3262 19.7889 18.2026C20.1562 18.7104 19.3785 19.2732 19.0048 18.7641C17.3763 16.6354 19.0603 13.3738 21.7501 13.4396C22.3848 13.451 22.386 14.3884 21.75 14.3996C21.0569 14.3996 20.3961 14.6959 19.937 15.2129ZM23.2 20.1596C23.1891 20.7901 22.2443 20.791 22.2333 20.1596C22.2333 20.1596 22.2333 17.2796 22.2333 17.2796C22.2224 16.6498 21.278 16.648 21.2667 17.2796V21.5996C21.2667 21.8649 21.0503 22.0796 20.7833 22.0796C20.5164 22.0796 20.3 21.8649 20.3 21.5996V17.2796C20.3497 15.3818 23.15 15.3803 23.2 17.2796C23.2 17.2796 23.2 20.1596 23.2 20.1596ZM24.3031 19.0046C23.8854 19.4761 23.1612 18.8497 23.5739 18.3746C24.4372 17.4267 24.3352 15.8405 23.3581 15.008C23.1589 14.8318 23.1415 14.5285 23.3192 14.3302C23.4967 14.1334 23.8023 14.1151 24.0015 14.2918C25.3695 15.4571 25.512 17.6778 24.3031 19.0046ZM26.2055 19.682C25.8552 20.2053 25.0535 19.6842 25.396 19.1569C26.4299 17.6269 26.3048 15.4588 25.1069 14.0518C24.937 13.8474 24.966 13.5446 25.1718 13.3759C25.3778 13.208 25.6823 13.2366 25.8522 13.4406C27.3177 15.1616 27.4699 17.8098 26.2055 19.682Z" fill="#8D5AE2"/>
<path d="M15.4685 6.71973C14.8356 6.72972 14.8313 7.66883 15.4685 7.67973H23.2018C23.8347 7.66974 23.839 6.73059 23.2018 6.71973H15.4685Z" fill="#8D5AE2"/>
<path d="M11.1159 12.4805H3.38255C2.74965 12.4903 2.74531 13.4297 3.38258 13.4405H11.1159C11.7488 13.4307 11.7531 12.4912 11.1159 12.4805Z" fill="#8D5AE2"/>
<path d="M3.38255 14.4004C2.74965 14.4102 2.74531 15.3497 3.38258 15.3604H11.1159C11.7488 15.3506 11.7531 14.4111 11.1159 14.4004H3.38255Z" fill="#8D5AE2"/>
<path d="M12.0846 4.32039C12.0846 3.26172 11.2173 2.40039 10.1513 2.40039H4.3513C3.28528 2.40039 2.41797 3.26172 2.41797 4.32039V9.60039C2.41797 10.6593 3.28528 11.5204 4.3513 11.5204H10.1513C11.2173 11.5204 12.0846 10.6593 12.0846 9.60039V4.32039ZM7.25366 10.0804C6.6189 10.0708 6.61321 9.13223 7.24897 9.12039C7.88954 9.12918 7.89025 10.0688 7.25366 10.0804ZM8.18327 7.44297C7.90243 7.59672 7.73463 7.84914 7.73463 8.11867C7.73469 8.74316 6.78986 8.79648 6.76797 8.16036C6.76797 7.49406 7.12268 6.92711 7.71694 6.60203C8.08557 6.40047 8.27603 6.00015 8.20216 5.58226C7.97324 4.4582 6.29529 4.60041 6.28467 5.76041C6.28464 6.02547 6.06823 6.24039 5.80131 6.24039C4.82591 6.11145 5.51211 4.64637 6.00849 4.28948C8.24564 2.60362 10.5729 5.97921 8.18327 7.44297Z" fill="#8D5AE2"/>
</svg>
