<svg width="28" height="28" viewBox="0 0 28 28" fill="none" xmlns="http://www.w3.org/2000/svg">
<path d="M17.792 2.04701C18.1665 1.96094 18.5585 1.99361 18.9136 2.14049C19.2687 2.28737 19.5692 2.54116 19.7735 2.86664L21.6126 5.80288C21.7609 6.03938 21.9608 6.23926 22.1973 6.38754L25.1335 8.22662C25.4597 8.43075 25.7141 8.7315 25.8613 9.08699C26.0086 9.44249 26.0413 9.83504 25.955 10.21L25.1779 13.5848C25.1152 13.8575 25.1152 14.1409 25.1779 14.4136L25.955 17.7902C26.0405 18.1646 26.0073 18.5564 25.8601 18.9111C25.7129 19.2659 25.459 19.566 25.1335 19.7699L22.1973 21.6108C21.9605 21.7588 21.7605 21.9587 21.6126 22.1955L19.7735 25.1317C19.5695 25.4576 19.2691 25.7117 18.9139 25.859C18.5588 26.0062 18.1667 26.0391 17.792 25.9532L14.4154 25.1761C14.1432 25.1137 13.8605 25.1137 13.5884 25.1761L10.2118 25.9532C9.83707 26.0391 9.44492 26.0062 9.0898 25.859C8.73469 25.7117 8.43425 25.4576 8.23023 25.1317L6.39115 22.1955C6.24228 21.9588 6.04177 21.759 5.80464 21.6108L2.87025 19.7718C2.54444 19.5677 2.29026 19.2673 2.14304 18.9122C1.99582 18.5571 1.96287 18.1649 2.04877 17.7902L2.824 14.4136C2.88668 14.1409 2.88668 13.8575 2.824 13.5848L2.04692 10.21C1.96078 9.83485 1.9938 9.44216 2.14138 9.08664C2.28896 8.73113 2.54375 8.4305 2.87025 8.22662L5.80464 6.38754C6.04181 6.23948 6.24233 6.03958 6.39115 5.80288L8.23023 2.86664C8.43439 2.54152 8.73464 2.28795 9.08936 2.14109C9.44407 1.99423 9.83569 1.96135 10.2099 2.04701L13.5884 2.82224C13.8605 2.88464 14.1432 2.88464 14.4154 2.82224L17.792 2.04701Z" stroke="#8D5AE2" stroke-width="2.5"/>
<path d="M9.40387 14.9906L13.169 18.5966L18.5993 9.40118" stroke="#8D5AE2" stroke-width="2.5" stroke-linecap="round" stroke-linejoin="round"/>
</svg>
