<svg width="29" height="26" viewBox="0 0 29 26" fill="none" xmlns="http://www.w3.org/2000/svg">
<path d="M1 22.0815V20.7639C1 15.6701 5.18597 11.5408 10.3496 11.5408" stroke="#8D5AE2" stroke-width="2" stroke-linecap="round" stroke-linejoin="round"/>
<path d="M19.4381 11.9538C20.2953 11.0253 21.7763 11.0253 22.6335 11.9538C23.0668 12.4231 23.6895 12.6776 24.3322 12.6479C25.6039 12.5893 26.6512 13.6224 26.5918 14.8769C26.5617 15.5109 26.8196 16.1252 27.2954 16.5526C28.2366 17.3982 28.2366 18.8592 27.2954 19.7048C26.8196 20.1322 26.5617 20.7465 26.5918 21.3805C26.6512 22.635 25.6039 23.6681 24.3322 23.6095C23.6895 23.5799 23.0668 23.8343 22.6335 24.3036C21.7763 25.2321 20.2953 25.2321 19.4381 24.3036C19.0048 23.8343 18.3821 23.5799 17.7394 23.6095C16.4677 23.6681 15.4204 22.635 15.4799 21.3805C15.5099 20.7465 15.252 20.1322 14.7762 19.7048C13.835 18.8592 13.835 17.3982 14.7762 16.5526C15.252 16.1252 15.5099 15.5109 15.4799 14.8769C15.4204 13.6224 16.4677 12.5893 17.7394 12.6479C18.3821 12.6776 19.0048 12.4231 19.4381 11.9538Z" stroke="#8D5AE2" stroke-width="2"/>
<path d="M18.8496 18.1287L20.3068 19.5661L23.221 16.6914" stroke="#8D5AE2" stroke-width="2" stroke-linecap="round" stroke-linejoin="round"/>
<path d="M10.3504 11.5407C13.3011 11.5407 15.6931 9.18107 15.6931 6.27037C15.6931 3.35963 13.3011 1 10.3504 1C7.39979 1 5.00781 3.35963 5.00781 6.27037C5.00781 9.18107 7.39979 11.5407 10.3504 11.5407Z" stroke="#8D5AE2" stroke-width="2" stroke-linecap="round" stroke-linejoin="round"/>
</svg>
