<svg width="60" height="60" viewBox="0 0 60 60" fill="none" xmlns="http://www.w3.org/2000/svg">
<circle cx="30" cy="30.0001" r="30" fill="#8D5AE2"/>
<path d="M30 17.9287C30 17.4159 29.5843 17.0001 29.0715 17.0001C28.5586 17.0001 28.1429 17.4159 28.1429 17.9287V18.2382H21.0238C18.8015 18.2382 17 20.0397 17 22.262V34.024C17 36.2462 18.8015 38.0477 21.0238 38.0477H23.9933L22.167 40.2391C21.8386 40.633 21.8918 41.2185 22.2858 41.5468C22.6797 41.8752 23.2653 41.8221 23.5936 41.4281L26.411 38.0477H30.7539C30.9741 37.2864 31.451 36.6342 32.0846 36.1906H21.0238C19.8272 36.1906 18.8571 35.2206 18.8571 34.024V22.262C18.8571 21.0654 19.8272 20.0954 21.0238 20.0954H37.7381C38.9347 20.0954 39.9048 21.0654 39.9048 22.262V28.9197C41.0274 29.7027 41.7619 31.0038 41.7619 32.4763V22.262C41.7619 20.0397 39.9603 18.2382 37.7381 18.2382H30V17.9287ZM21.9524 24.1192C21.9524 23.6063 22.3681 23.1906 22.881 23.1906H27.8333C28.3462 23.1906 28.7619 23.6063 28.7619 24.1192C28.7619 24.632 28.3462 25.0477 27.8333 25.0477H22.881C22.3681 25.0477 21.9524 24.632 21.9524 24.1192ZM22.881 26.9049C22.3681 26.9049 21.9524 27.3207 21.9524 27.8334C21.9524 28.3463 22.3681 28.762 22.881 28.762H30.9286C31.4414 28.762 31.8572 28.3463 31.8572 27.8334C31.8572 27.3207 31.4414 26.9049 30.9286 26.9049H22.881ZM21.9524 31.5477C21.9524 31.035 22.3681 30.6191 22.881 30.6191H29.6905C30.2033 30.6191 30.619 31.035 30.619 31.5477C30.619 32.0605 30.2033 32.4763 29.6905 32.4763H22.881C22.3681 32.4763 21.9524 32.0605 21.9524 31.5477ZM40.5238 32.4763C40.5238 34.1857 39.138 35.5715 37.4286 35.5715C35.7192 35.5715 34.3333 34.1857 34.3333 32.4763C34.3333 30.7668 35.7192 29.3811 37.4286 29.3811C39.138 29.3811 40.5238 30.7668 40.5238 32.4763ZM43 39.1311C43 41.0582 41.4082 43.0001 37.4286 43.0001C33.449 43.0001 31.8572 41.0655 31.8572 39.1311V39.0035C31.8572 37.7913 32.8398 36.8097 34.0519 36.8097H40.8053C42.0174 36.8097 43 37.7915 43 39.0035V39.1311Z" fill="white"/>
</svg>
