<svg width="24" height="21" viewBox="0 0 24 21" fill="none" xmlns="http://www.w3.org/2000/svg">
<path d="M9.19843 0C7.97864 0 6.80881 0.491665 5.94629 1.36683C5.08377 2.242 4.59921 3.42899 4.59921 4.66667C4.59921 5.90434 5.08377 7.09133 5.94629 7.9665C6.80881 8.84167 7.97864 9.33333 9.19843 9.33333C10.4182 9.33333 11.588 8.84167 12.4506 7.9665C13.3131 7.09133 13.7976 5.90434 13.7976 4.66667C13.7976 3.42899 13.3131 2.242 12.4506 1.36683C11.588 0.491665 10.4182 0 9.19843 0ZM9.19843 2.33333C9.80832 2.33333 10.3932 2.57917 10.8245 3.01675C11.2558 3.45434 11.498 4.04783 11.498 4.66667C11.498 5.2855 11.2558 5.879 10.8245 6.31658C10.3932 6.75417 9.80832 7 9.19843 7C8.58853 7 8.00362 6.75417 7.57236 6.31658C7.1411 5.879 6.89882 5.2855 6.89882 4.66667C6.89882 4.04783 7.1411 3.45434 7.57236 3.01675C8.00362 2.57917 8.58853 2.33333 9.19843 2.33333ZM17.247 9.33333C17.0631 9.33333 16.9711 9.42667 16.9711 9.61333L16.6721 11.0833C16.4192 11.2933 16.0513 11.48 15.7753 11.6667L14.3036 11.0833C14.2116 11.0833 14.0276 11.0833 13.9356 11.2L12.8318 13.2533C12.7398 13.3467 12.7398 13.5333 12.9238 13.6267L14.1196 14.5833V15.75L12.9238 16.7067C12.8318 16.8 12.7398 16.9867 12.8318 17.08L13.9356 19.1333C14.0276 19.25 14.2116 19.25 14.3036 19.25L15.7753 18.6667C16.0513 18.8533 16.4192 19.04 16.6721 19.25L16.9711 20.72C16.9711 20.9067 17.0631 21 17.247 21H19.5467C19.6386 21 19.8226 20.9067 19.8226 20.72L20.0066 19.25C20.3745 19.04 20.7425 18.8533 21.0184 18.6667L22.4212 19.25C22.5821 19.25 22.7661 19.25 22.7661 19.1333L23.9619 17.08C24.0539 16.9867 23.9619 16.8 23.8699 16.7067L22.6741 15.75V14.5833L23.8699 13.6267C23.9619 13.5333 24.0539 13.3467 23.9619 13.2533L22.7661 11.2C22.7661 11.0833 22.5821 11.0833 22.4212 11.0833L21.0184 11.6667C20.7425 11.48 20.3745 11.2933 20.0066 11.0833L19.8226 9.61333C19.8226 9.42667 19.6386 9.33333 19.5467 9.33333H17.247ZM9.19843 10.5C6.12845 10.5 0 12.0517 0 15.1667V18.6667H11.1186C10.7967 17.9783 10.5667 17.2317 10.4517 16.45H2.18463V15.1667C2.18463 14.42 5.78351 12.7167 9.19843 12.7167C9.69284 12.7167 10.1988 12.7633 10.6932 12.8333C10.9231 12.0867 11.2336 11.3867 11.636 10.745C10.7392 10.5933 9.88831 10.5 9.19843 10.5ZM18.4428 13.4167C19.3627 13.4167 20.1216 14.1867 20.1216 15.2133C20.1216 16.1467 19.3627 16.9167 18.4428 16.9167C17.431 16.9167 16.6721 16.1467 16.6721 15.2133C16.6721 14.1867 17.431 13.4167 18.4428 13.4167Z" fill="#8D5AE2"/>
</svg>
