<svg width="28" height="28" viewBox="0 0 28 28" fill="none" xmlns="http://www.w3.org/2000/svg">
<path fill-rule="evenodd" clip-rule="evenodd" d="M19.8021 1.55523C18.6913 0.737939 17.3637 0.203062 15.9268 0.0468572C15.4958 0 14.9972 0 14.0001 0C13.003 0 12.5045 0 12.0734 0.0468572C8.66573 0.417311 5.87272 2.91757 5.12873 6.26364C5.03463 6.68687 4.97965 7.18238 4.8697 8.17339L4.8697 8.17341L4.45394 11.9205L4.45394 11.9205C4.32476 13.0848 4.26017 13.6669 4.1136 14.2285C4.01952 14.5889 3.90038 14.9423 3.75706 15.2861C3.53376 15.8218 3.23273 16.3242 2.63068 17.329L1.01187 20.0309C0.207473 21.3735 -0.194725 22.0448 0.0925598 22.5518C0.379844 23.0588 1.1624 23.0588 2.72751 23.0588H25.2727C26.8378 23.0588 27.6204 23.0588 27.9077 22.5518C28.195 22.0448 27.7928 21.3735 26.9884 20.0309L25.3696 17.329C24.7675 16.3242 24.4665 15.8218 24.2432 15.2861C24.0999 14.9423 23.9807 14.5889 23.8866 14.2285C23.7401 13.6669 23.6755 13.0848 23.5463 11.9205L23.3566 10.2108C20.6733 9.95311 18.5789 7.68983 18.5789 4.94115C18.5789 3.65405 19.0382 2.47338 19.8021 1.55523ZM21.2571 2.93768C20.8317 3.49278 20.5789 4.1874 20.5789 4.94115C20.5789 6.50554 21.6679 7.81523 23.1281 8.15152C23.0198 7.17507 22.9649 6.68374 22.8715 6.26364C22.5939 5.01495 22.0309 3.88406 21.2571 2.93768Z" fill="#8D5AE2" fill-opacity="0.7"/>
<path d="M9.06581 23.0589C9.06581 23.7077 9.19343 24.3503 9.4414 24.9498C9.68936 25.5492 10.0528 26.094 10.511 26.5528C10.9692 27.0116 11.5131 27.3756 12.1117 27.6239C12.7104 27.8722 13.352 28 13.9999 28C14.6479 28 15.2895 27.8722 15.8882 27.6239C16.4868 27.3756 17.0307 27.0116 17.4889 26.5528C17.9471 26.094 18.3105 25.5492 18.5585 24.9498C18.8065 24.3503 18.9341 23.7077 18.9341 23.0589L13.9999 23.0589H9.06581Z" fill="#8D5AE2" fill-opacity="0.7"/>
<ellipse cx="23.8683" cy="4.94115" rx="3.28942" ry="3.29412" fill="#F82223"/>
</svg>
