<svg width="23" height="25" viewBox="0 0 23 25" fill="none" xmlns="http://www.w3.org/2000/svg">
<path fill-rule="evenodd" clip-rule="evenodd" d="M15.1575 0.884051C14.0583 0.317854 12.8139 0 11.5017 0C7.42285 0 3.99835 3.07129 3.55608 7.1261L3.22438 10.1673C3.16729 10.6907 3.14292 10.9098 3.10597 11.1222C2.9872 11.8047 2.76779 12.4658 2.45489 13.0838C2.35753 13.2761 2.24602 13.4664 1.97882 13.92L1.12714 15.366L1.09027 15.4286C0.727872 16.0438 0.400393 16.5996 0.211184 17.0666C0.0125327 17.5569 -0.149254 18.2242 0.226168 18.881C0.60159 19.5378 1.25866 19.7371 1.78195 19.8147C2.28037 19.8887 2.92552 19.8886 3.63946 19.8886L3.7121 19.8885H19.2913L19.3639 19.8886C20.0779 19.8886 20.723 19.8887 21.2215 19.8147C21.7447 19.7371 22.4018 19.5378 22.7772 18.881C23.1527 18.2242 22.9909 17.5569 22.7922 17.0666C22.603 16.5996 22.2755 16.0438 21.9132 15.4287L21.9131 15.4286L21.8763 15.366L21.0246 13.92C20.7574 13.4664 20.6459 13.2761 20.5485 13.0838C20.2356 12.4658 20.0162 11.8047 19.8974 11.1222C19.8647 10.9342 19.8419 10.741 19.7975 10.3362C19.5478 10.3709 19.2923 10.3888 19.032 10.3888C18.5983 10.3888 18.1779 10.3389 17.7756 10.2448L17.7908 10.3841L17.7947 10.4196L17.7947 10.4197C17.8468 10.8975 17.8779 11.1826 17.927 11.4651C18.0797 12.3425 18.3618 13.1925 18.7641 13.9872C18.8937 14.243 19.0393 14.4902 19.2833 14.9044L19.2833 14.9045L19.3013 14.935L20.153 16.381C20.5642 17.0793 20.812 17.5053 20.9386 17.8176L20.9451 17.8338L20.9278 17.8364C20.5945 17.8859 20.1017 17.8885 19.2913 17.8885H3.7121C2.90169 17.8885 2.40888 17.8859 2.07556 17.8364L2.05835 17.8338L2.06482 17.8176C2.19136 17.5053 2.43916 17.0793 2.85044 16.381L3.70212 14.935L3.72014 14.9045L3.72014 14.9044C3.96414 14.4902 4.10973 14.243 4.23926 13.9872C4.64156 13.1925 4.92366 12.3425 5.07636 11.4651C5.12552 11.1825 5.15662 10.8974 5.20873 10.4195L5.21259 10.3841L5.54429 7.34295C5.87589 4.30277 8.44349 2 11.5017 2C12.3944 2 13.2452 2.19619 14.0109 2.54965C14.29 1.92653 14.6801 1.36199 15.1575 0.884051ZM17.5521 2.76966C16.9553 3.21457 16.5587 3.92167 16.5257 4.72452C16.9187 5.3278 17.2067 6.00802 17.3626 6.74079C17.806 7.14387 18.3909 7.38885 19.032 7.38885C19.182 7.38885 19.329 7.37543 19.4717 7.34973L19.4473 7.1261C19.2655 5.45948 18.5799 3.959 17.5521 2.76966ZM21.0032 18.0248C21.0031 18.0247 21.0027 18.0222 21.0026 18.0176C21.0033 18.0226 21.0034 18.0249 21.0032 18.0248ZM21.1327 17.7901C21.1367 17.7879 21.139 17.7869 21.1392 17.787C21.1393 17.7871 21.1373 17.7882 21.1327 17.7901ZM1.86424 17.787C1.86441 17.7869 1.86674 17.7879 1.87071 17.7901C1.86605 17.7882 1.86407 17.7871 1.86424 17.787ZM2.00077 18.0176C2.00067 18.0222 2.00032 18.0247 2.00017 18.0248C2.00001 18.0249 2.00007 18.0226 2.00077 18.0176Z" fill="#8D5AE2"/>
<path d="M7.86804 19.7383C8.08243 20.9609 8.55484 22.0413 9.21201 22.8118C9.86918 23.5823 10.6744 24 11.5027 24C12.3311 24 13.1363 23.5823 13.7934 22.8118C14.4506 22.0413 14.923 20.9609 15.1374 19.7383" stroke="#8D5AE2" stroke-width="2" stroke-linecap="round"/>
<path d="M19.032 7.88836C20.7023 7.88836 22.0406 6.51159 22.0406 4.83285C22.0406 3.15411 20.7023 1.77734 19.032 1.77734C17.3617 1.77734 16.0234 3.15411 16.0234 4.83285C16.0234 6.51159 17.3617 7.88836 19.032 7.88836Z" fill="#8D5AE2" stroke="#8D5AE2"/>
</svg>
