<svg width="24" height="23" viewBox="0 0 24 23" fill="none" xmlns="http://www.w3.org/2000/svg">
<path fill-rule="evenodd" clip-rule="evenodd" d="M2.248 10.2962H1.45637V10.52H2.248V10.2962ZM1.1605 9.69264H2.54484C2.70712 9.69264 2.84071 9.82935 2.84071 9.99545V10.8228C2.84071 10.9889 2.70713 11.1257 2.54484 11.1257H1.1605C0.998211 11.1257 0.864618 10.9889 0.864618 10.8228V9.99545C0.864618 9.82936 0.998203 9.69264 1.1605 9.69264ZM4.87213 10.2962H4.08051V10.52H4.87213V10.2962ZM3.78463 9.69264H5.16897C5.33126 9.69264 5.46485 9.82935 5.46485 9.99545V10.8228C5.46485 10.9889 5.33127 11.1257 5.16897 11.1257H3.78463C3.62235 11.1257 3.48876 10.9889 3.48876 10.8228V9.99545C3.48876 9.82936 3.62234 9.69264 3.78463 9.69264ZM7.49627 10.2962H6.70465V10.52H7.49627V10.2962ZM6.40877 9.69264H7.79311C7.95539 9.69264 8.08899 9.82935 8.08899 9.99545V10.8228C8.08899 10.9889 7.9554 11.1257 7.79311 11.1257H6.40877C6.24649 11.1257 6.11289 10.9889 6.11289 10.8228V9.99545C6.11289 9.82936 6.24648 9.69264 6.40877 9.69264ZM2.24876 12.1677H1.45713V12.3916H2.24876V12.1677ZM1.16126 11.5642H2.5456C2.70788 11.5642 2.84147 11.7009 2.84147 11.867V12.6944C2.84147 12.8605 2.70789 12.9972 2.5456 12.9972H1.16126C0.998974 12.9972 0.865378 12.8605 0.865378 12.6944V11.867C0.865378 11.7009 0.998963 11.5642 1.16126 11.5642ZM4.87289 12.1677H4.08127V12.3916H4.87289V12.1677ZM3.78539 11.5642H5.16973C5.33202 11.5642 5.46561 11.7009 5.46561 11.867V12.6944C5.46561 12.8605 5.33203 12.9972 5.16973 12.9972H3.78539C3.62311 12.9972 3.48952 12.8605 3.48952 12.6944V11.867C3.48952 11.7009 3.6231 11.5642 3.78539 11.5642ZM7.49703 12.1677H6.70541V12.3916H7.49703V12.1677ZM6.40953 11.5642H7.79387C7.95615 11.5642 8.08975 11.7009 8.08975 11.867V12.6944C8.08975 12.8605 7.95616 12.9972 7.79387 12.9972H6.40953C6.24725 12.9972 6.11365 12.8605 6.11365 12.6944V11.867C6.11365 11.7009 6.24724 11.5642 6.40953 11.5642ZM10.1212 12.1677H9.32955V12.3916H10.1212V12.1677ZM2.25256 14.0403H1.46093V14.2641H2.25256V14.0403ZM1.16506 13.4367H2.5494C2.71168 13.4367 2.84527 13.5734 2.84527 13.7395V14.5669C2.84527 14.733 2.71169 14.8697 2.5494 14.8697H1.16506C1.00277 14.8697 0.869178 14.733 0.869178 14.5669V13.7395C0.869178 13.5734 1.00276 13.4367 1.16506 13.4367ZM4.87669 14.0403H4.08507V14.2641H4.87669V14.0403ZM3.78919 13.4367H5.17353C5.33582 13.4367 5.46941 13.5734 5.46941 13.7395V14.5669C5.46941 14.733 5.33583 14.8697 5.17353 14.8697H3.78919C3.62691 14.8697 3.49332 14.733 3.49332 14.5669V13.7395C3.49332 13.5734 3.6269 13.4367 3.78919 13.4367ZM9.03671 13.4367H10.4211C10.5833 13.4367 10.7169 13.5734 10.7169 13.7395V18.7009C10.7169 18.867 10.5833 19.0038 10.4211 19.0038H9.03671C8.87443 19.0038 8.74083 18.867 8.74083 18.7009V13.7395C8.74083 13.5734 8.87442 13.4367 9.03671 13.4367ZM2.25534 15.9118H1.46372V16.1356H2.25534V15.9118ZM1.16784 15.3082H2.55218C2.71446 15.3082 2.84806 15.445 2.84806 15.6111V16.4385C2.84806 16.6045 2.71447 16.7413 2.55218 16.7413H1.16784C1.00556 16.7413 0.871964 16.6046 0.871964 16.4385V15.6111C0.871964 15.445 1.00555 15.3082 1.16784 15.3082ZM4.87948 15.9118H4.08786V16.1356H4.87948V15.9118ZM3.79198 15.3082H5.17632C5.3386 15.3082 5.4722 15.445 5.4722 15.6111V16.4385C5.4722 16.6045 5.33861 16.7413 5.17632 16.7413H3.79198C3.6297 16.7413 3.4961 16.6046 3.4961 16.4385V15.6111C3.4961 15.445 3.62969 15.3082 3.79198 15.3082ZM2.25623 18.1762H1.46461V18.4H2.25623V18.1762ZM1.16873 17.5726H2.55307C2.71535 17.5726 2.84895 17.7093 2.84895 17.8754V18.7028C2.84895 18.8689 2.71536 19.0056 2.55307 19.0056H1.16873C1.00645 19.0056 0.872851 18.8689 0.872851 18.7028V17.8754C0.872851 17.7093 1.00644 17.5726 1.16873 17.5726ZM7.50172 18.1762H4.08596V18.4H7.50172V18.1762ZM3.79008 17.5726H7.79481C7.95709 17.5726 8.09069 17.7093 8.09069 17.8754V18.7028C8.09069 18.8689 7.9571 19.0056 7.79481 19.0056H3.79008C3.6278 19.0056 3.4942 18.8689 3.4942 18.7028V17.8754C3.4942 17.7093 3.62779 17.5726 3.79008 17.5726ZM7.50172 14.0412H6.71009V14.265H7.50172V14.0412ZM6.41422 13.4376H7.79856C7.96084 13.4376 8.09444 13.5744 8.09444 13.7405V14.5679C8.09444 14.7339 7.96085 14.8707 7.79856 14.8707H6.41422C6.25194 14.8707 6.11834 14.734 6.11834 14.5679V13.7405C6.11834 13.5744 6.25193 13.4376 6.41422 13.4376ZM7.50172 15.9128H6.71009V16.1366H7.50172V15.9128ZM6.41422 15.3092H7.79856C7.96084 15.3092 8.09444 15.4459 8.09444 15.612V16.4394C8.09444 16.6055 7.96085 16.7422 7.79856 16.7422H6.41422C6.25194 16.7422 6.11834 16.6055 6.11834 16.4394V15.612C6.11834 15.4459 6.25193 15.3092 6.41422 15.3092ZM9.33145 15.9209H10.1231V14.0433H9.33145V15.9209ZM10.1231 16.5245H9.33145V18.4021H10.1231V16.5245ZM15.9228 16.2733C15.5171 15.3861 15.1787 14.2863 14.9046 12.9709L14.9897 16.2207C15.0115 16.4171 15.0807 16.5397 15.1708 16.6025C15.2272 16.641 15.2935 16.6602 15.3628 16.6602C15.4459 16.6602 15.531 16.641 15.6111 16.6004C15.7447 16.5346 15.8615 16.4202 15.9228 16.2703L15.9228 16.2733ZM16.7362 6.69397C16.8401 6.71827 16.9361 6.75169 17.0291 6.78916C17.1468 6.83879 17.2557 6.89854 17.3705 6.97247L20.6667 9.15288C20.92 9.31896 21.1248 9.52354 21.2772 9.76457C21.4296 10.0015 21.5335 10.275 21.584 10.5808L22.2935 14.814C22.3439 15.1229 22.438 15.4034 22.5765 15.6596C22.715 15.9189 22.8941 16.1508 23.1178 16.3614L23.7867 16.9913C23.851 17.0977 23.9015 17.201 23.9331 17.3002C24.04 17.6061 24.0182 17.8977 23.8718 18.1813C23.7095 18.4952 23.3919 18.8031 22.9198 19.1089C22.435 19.4259 21.7977 19.7287 21.0081 20.0204L20.0957 19.0188C19.9433 18.8527 19.7761 18.719 19.592 18.6208C19.408 18.5225 19.2051 18.4567 18.9845 18.4273C18.1632 18.3099 17.4567 17.764 16.8649 16.7928C16.2435 15.772 15.7477 14.2934 15.3846 12.3551C15.3737 12.3004 15.3469 12.2457 15.3074 12.2022L13.262 10.041C12.9256 9.69467 12.8118 9.31488 12.8642 9.0283C12.883 8.92703 12.9226 8.83993 12.979 8.77208C13.0324 8.70929 13.1047 8.6627 13.1898 8.6384C13.4322 8.57257 13.7875 8.67081 14.2219 9.03641L16.7867 11.3262C16.9094 11.4356 17.0965 11.4214 17.2023 11.2988C17.3092 11.1733 17.2953 10.9818 17.1756 10.8735L16.8293 10.5626L18.2928 8.90376C18.3967 8.78628 18.4451 8.63944 18.4372 8.49462C18.4293 8.34676 18.368 8.20498 18.2532 8.09866L16.7362 6.69602L16.7362 6.69397ZM14.3287 13.3942L13.8329 13.9563C13.729 14.0738 13.5905 14.1366 13.446 14.1447C13.4084 14.1447 13.3718 14.1447 13.3342 14.1396L13.358 15.7174C13.4005 15.9271 13.4668 16.0617 13.547 16.1347C13.6004 16.1843 13.6618 16.2056 13.7261 16.2025C13.8092 16.2025 13.8992 16.1721 13.9903 16.1175C14.1555 16.0223 14.305 15.8582 14.3901 15.6749L14.3317 13.3932L14.3287 13.3942ZM8.76452 2.66846H1.17075V7.68744H6.22144L5.59506 7.10917L5.58417 7.09803L5.56834 7.08182C5.47236 6.97853 5.41892 6.84687 5.41397 6.71318C5.40606 6.56837 5.45355 6.42152 5.55844 6.30405L5.57724 6.28481L8.76958 2.67127L8.76452 2.66846ZM13.9644 12.9001L13.4093 13.528L6.00956 6.68409L6.56173 6.05619L13.9614 12.9001H13.9644ZM14.6551 8.01463L15.9138 9.18028L16.5619 8.44606L15.3033 7.28041L14.6551 8.01463ZM13.9753 8.16451C13.6211 8.00349 13.3004 7.97918 13.0362 8.05007C12.8314 8.10476 12.6602 8.21919 12.5326 8.37212C12.4069 8.51998 12.3218 8.70532 12.2842 8.91291C12.2011 9.37675 12.3584 9.95803 12.8413 10.4573L14.5403 12.2529L14.3642 12.4524L6.96446 5.60849L10.4387 1.67295L17.8385 8.51685L16.3878 10.1595L16.0652 9.87287C16.0999 9.85667 16.1315 9.83236 16.1582 9.80198L17.2012 8.62316C17.3101 8.50062 17.3002 8.30922 17.1794 8.19782L15.4863 6.63112C15.3666 6.51972 15.1796 6.52985 15.0708 6.6534L14.0278 7.83222C13.9447 7.92539 13.9318 8.05603 13.9793 8.16236L13.9753 8.16451ZM10.2763 5.77651C10.3961 5.88791 10.4069 6.07626 10.2981 6.20185C10.1892 6.32439 10.0052 6.33553 9.8825 6.22413L8.47736 4.9248C8.35763 4.8134 8.34675 4.62505 8.45559 4.49946C8.56444 4.37692 8.74848 4.36579 8.87119 4.47718L10.2763 5.77651ZM12.0654 6.01956L9.55893 3.69941C9.43919 3.58801 9.25218 3.59814 9.14333 3.72169C9.03448 3.84423 9.04438 4.03562 9.1651 4.14703L11.6716 6.46718C11.7913 6.57858 11.9783 6.56845 12.0872 6.4449C12.196 6.32236 12.1861 6.13097 12.0654 6.01956ZM13.052 5.52332L10.2437 2.92555C10.1239 2.81415 9.93691 2.82428 9.82805 2.94783C9.7192 3.07037 9.7291 3.26177 9.84982 3.37317L12.6581 5.97093C12.7779 6.08234 12.9649 6.07221 13.0737 5.94866C13.1826 5.82611 13.1727 5.63472 13.052 5.52332ZM2.21848 20.5411V22.8309L2.38374 22.7023C2.50149 22.601 2.67465 22.6091 2.7835 22.7245L3.04472 23L3.31091 22.7185C3.42866 22.604 3.61469 22.604 3.72651 22.7235L3.98773 22.999L4.25392 22.7175C4.37167 22.603 4.5577 22.603 4.66951 22.7225L4.93074 22.998L5.19693 22.7165C5.31468 22.602 5.50071 22.602 5.61252 22.7215L5.87374 22.997L6.13993 22.7155C6.25769 22.601 6.44371 22.601 6.55553 22.7205L6.81675 22.996L7.08294 22.7145C7.20069 22.6 7.38672 22.6 7.49854 22.7195L7.75976 22.995L8.02595 22.7135C8.1437 22.599 8.32973 22.599 8.44155 22.7185L8.70277 22.994L8.96896 22.7125C9.07583 22.6092 9.23514 22.6011 9.34992 22.6881V20.5381L2.21847 20.5432L2.21848 20.5411ZM6.87425 8.29323L8.73257 10.0128V10.823C8.73257 10.9891 8.86616 11.1258 9.02845 11.1258H9.93485L10.4098 11.5654H9.02845C8.86617 11.5654 8.73257 11.7021 8.73257 11.8682V12.6956C8.73257 12.8616 8.86616 12.9984 9.02845 12.9984H10.4128C10.5751 12.9984 10.7087 12.8617 10.7087 12.6956V11.8682V11.8378L11.5755 12.6378V19.4848C11.5755 19.6104 11.525 19.7218 11.4449 19.8039C11.3647 19.8859 11.2529 19.9375 11.1332 19.9375H0.442329C0.319626 19.9375 0.21078 19.8859 0.130619 19.8039C0.0504663 19.7218 0 19.6074 0 19.4848V0.452696C0 0.327116 0.0504663 0.215718 0.130619 0.133679C0.210772 0.0516469 0.322587 0 0.442329 0H11.1301C11.2528 0 11.3617 0.0516495 11.4418 0.133679C11.522 0.215711 11.5725 0.330147 11.5725 0.452696V1.92116L10.8046 1.21123C10.6898 1.1049 10.5463 1.05527 10.4048 1.06338C10.2604 1.07148 10.1218 1.13427 10.0179 1.25174L9.29755 2.06496H0.874675C0.71239 2.06496 0.578797 2.20167 0.578797 2.36777V7.99238C0.578797 8.15846 0.712383 8.29519 0.874675 8.29519H6.8743L6.87425 8.29323Z" fill="#8D5AE2"/>
</svg>
