<svg width="32" height="30" viewBox="0 0 32 30" fill="none" xmlns="http://www.w3.org/2000/svg">
<path d="M30.5763 16.8125H17.0543L26.0597 25.7635C26.4038 26.1056 26.9703 26.1333 27.3242 25.802C29.5295 23.7369 31.0464 20.9529 31.4915 17.8235C31.5678 17.2877 31.1205 16.8125 30.5763 16.8125ZM29.6742 13.1421C29.2047 6.37574 23.7649 0.968772 16.9574 0.502048C16.4377 0.466364 16.0001 0.901935 16.0001 1.41964V14.0937H28.7516C29.2725 14.0937 29.7101 13.6587 29.6742 13.1421ZM13.2648 16.8125V3.37206C13.2648 2.83114 12.7867 2.3865 12.2482 2.4624C5.45726 3.41624 0.266486 9.31316 0.508102 16.3803C0.756558 23.6383 7.04372 29.5902 14.3492 29.499C17.2213 29.4633 19.8751 28.5434 22.057 27.0051C22.5072 26.6879 22.5368 26.0291 22.1465 25.6411L13.2648 16.8125Z" fill="#FFF"/>
</svg>