<svg width="24" height="24" viewBox="0 0 24 24" fill="none" xmlns="http://www.w3.org/2000/svg">
<path d="M20.5712 1.71448H13.2119L13.463 1.46334C13.7982 1.1282 13.7982 0.586495 13.463 0.251355C13.1279 -0.083785 12.5862 -0.083785 12.251 0.251355L10.7879 1.71448H3.42854C1.5377 1.71448 0 3.25219 0 5.14303V9.4287C0 11.3195 1.5377 12.8572 3.42854 12.8572V21.4286C3.42854 22.8463 4.58224 24 5.99995 24H17.9998C19.4175 24 20.5712 22.8463 20.5712 21.4286V12.8572C22.4621 12.8572 23.9998 11.3195 23.9998 9.4287V5.14303C23.9998 3.25219 22.4621 1.71448 20.5712 1.71448ZM18.857 15.4286H5.14281V11.143C5.14281 10.6698 5.52681 10.2858 5.99995 10.2858H17.9998C18.473 10.2858 18.857 10.6698 18.857 11.143V15.4286ZM18.857 21.4286C18.857 21.9017 18.473 22.2857 17.9998 22.2857H5.99995C5.52681 22.2857 5.14281 21.9017 5.14281 21.4286V17.1429H18.857V21.4286ZM22.2855 9.4287C22.2855 10.3741 21.5167 11.143 20.5712 11.143C20.5712 9.72527 19.4175 8.57157 17.9998 8.57157H5.99995C4.58224 8.57157 3.42854 9.72527 3.42854 11.143C2.48312 11.143 1.71427 10.3741 1.71427 9.4287V5.14303C1.71427 4.19761 2.48312 3.42876 3.42854 3.42876H10.7879L12.251 4.89188C12.4182 5.05903 12.6376 5.14303 12.857 5.14303C13.0765 5.14303 13.2959 5.05903 13.463 4.89188C13.7982 4.55674 13.7982 4.01504 13.463 3.6799L13.2119 3.42876H20.5712C21.5167 3.42876 22.2855 4.19761 22.2855 5.14303V9.4287Z" fill="#8D5AE2"/>
</svg>
