<svg width="24" height="20" viewBox="0 0 24 20" fill="none" xmlns="http://www.w3.org/2000/svg">
<path d="M12.441 5.10417H15.7287C16.0574 5.10417 16.3103 4.84375 16.3103 4.50521C16.3103 4.16667 16.0574 3.90625 15.7287 3.90625H12.441C12.1123 3.90625 11.8594 4.16667 11.8594 4.50521C11.8594 4.84375 12.1123 5.10417 12.441 5.10417Z" fill="#8D5AE2"/>
<path d="M7.86562 4.87033L8.59901 5.67763C8.70017 5.80783 8.87719 5.85992 9.02893 5.85992C9.18066 5.85992 9.35769 5.78179 9.45885 5.67763L10.8245 4.16721C11.0521 3.93283 11.0268 3.54221 10.7992 3.30783C10.5716 3.07346 10.1922 3.0995 9.96464 3.33387L9.02893 4.37554L8.72545 4.037C8.49785 3.80262 8.11851 3.77658 7.89091 4.01096C7.6633 4.24533 7.63801 4.63596 7.86562 4.87033Z" fill="#8D5AE2"/>
<path d="M12.441 8.43717H15.7287C16.0574 8.43717 16.3103 8.17676 16.3103 7.83822C16.3103 7.49967 16.0574 7.23926 15.7287 7.23926H12.441C12.1123 7.23926 11.8594 7.49967 11.8594 7.83822C11.8594 8.17676 12.1123 8.43717 12.441 8.43717Z" fill="#8D5AE2"/>
<path d="M9.96464 6.66745L9.02893 7.70911L8.72545 7.37057C8.49785 7.1362 8.11851 7.11015 7.89091 7.34453C7.6633 7.5789 7.63801 7.96953 7.86562 8.2039L8.59901 9.0112C8.70017 9.1414 8.87719 9.19349 9.02893 9.19349C9.18066 9.19349 9.35769 9.11536 9.45885 9.0112L10.8245 7.50078C11.0521 7.2664 11.0268 6.87578 10.7992 6.6414C10.5463 6.40703 10.1922 6.40703 9.96464 6.66745Z" fill="#8D5AE2"/>
<path d="M12.441 11.7975H15.7287C16.0574 11.7975 16.3103 11.5371 16.3103 11.1986C16.3103 10.86 16.0574 10.5996 15.7287 10.5996H12.441C12.1123 10.5996 11.8594 10.86 11.8594 11.1986C11.8594 11.5371 12.1123 11.7975 12.441 11.7975Z" fill="#8D5AE2"/>
<path d="M9.96464 10L9.02893 11.0417L8.72545 10.7292C8.49785 10.4948 8.11851 10.4688 7.89091 10.7031C7.6633 10.9375 7.63801 11.3281 7.86562 11.5625L8.59901 12.3698C8.70017 12.5 8.87719 12.5521 9.02893 12.5521C9.18066 12.5521 9.35769 12.474 9.45885 12.3698L10.8245 10.8594C11.0521 10.625 11.0268 10.2344 10.7992 10C10.5463 9.73958 10.1922 9.73958 9.96464 10Z" fill="#8D5AE2"/>
<path d="M21.1925 0C19.9027 0 8.06732 0 8.06732 0C6.09474 0 4.50151 1.64062 4.50151 3.67188V14.1927H0.581656C0.252894 14.1927 0 14.4531 0 14.7917V16.3281C0 18.3594 1.59323 20 3.5658 20H16.691C18.2589 20 19.5234 18.6979 19.5234 17.0833V6.01562H23.418C23.7467 6.01562 23.9996 5.75521 23.9996 5.41667V2.91667C24.0249 1.30208 22.7604 0 21.1925 0ZM3.5658 18.8021C2.25076 18.8021 1.16331 17.7083 1.16331 16.3281V15.4167H13.8586V17.0833C13.8586 17.7083 14.0609 18.3073 14.3897 18.776H3.5658V18.8021ZM18.3601 2.91667V17.1094C18.3601 18.0469 17.6267 18.8021 16.7163 18.8021C15.8059 18.8021 15.0725 18.0469 15.0725 17.1094V14.8177C15.0725 14.4792 14.8196 14.2187 14.4908 14.2187H5.66482V3.67188C5.66482 2.31771 6.72698 1.19792 8.06732 1.19792H18.9165C18.5624 1.69271 18.3601 2.26562 18.3601 2.91667ZM22.8363 4.79167H19.5487V2.91667C19.5487 1.97917 20.2821 1.22396 21.1925 1.22396C22.1029 1.22396 22.8363 1.97917 22.8363 2.91667V4.79167Z" fill="#8D5AE2"/>
</svg>
