<svg width="28" height="25" viewBox="0 0 28 25" fill="none" xmlns="http://www.w3.org/2000/svg">
<path d="M18.8353 6.78336C18.6467 6.51985 18.7107 6.15324 18.9796 5.96764C19.2473 5.78204 19.6197 5.84505 19.8082 6.10971C20.2202 6.68829 20.5449 7.32871 20.7649 8.01156C20.9767 8.67262 21.0919 9.37492 21.0919 10.1024L21.0907 13.5018V15.3303C21.0919 15.3509 21.0919 15.3727 21.0907 15.3933L21.0896 18.5817C21.0919 18.7582 21.1222 18.9185 21.1815 19.0606C21.2409 19.2027 21.334 19.3356 21.4573 19.457L22.7457 20.723C22.9785 20.9522 22.9785 21.3234 22.7457 21.5525C22.6293 21.6671 22.4769 21.7244 22.3244 21.7244H16.8533C16.7439 22.2995 16.4588 22.8105 16.0549 23.208C15.5301 23.7247 14.8027 24.0455 14.0008 24.0455C13.4515 24.0455 12.9336 23.892 12.4925 23.6285L12.4564 23.6056C12.0188 23.334 11.658 22.9514 11.4206 22.4977C11.2705 22.2113 11.3845 21.8573 11.6766 21.7095C11.9676 21.5617 12.3272 21.674 12.4774 21.9615C12.6182 22.2285 12.8277 22.453 13.0825 22.6123L13.1116 22.6295C13.3677 22.783 13.6726 22.8724 13.9996 22.8724C14.4721 22.8724 14.9016 22.6833 15.2112 22.3786C15.3962 22.1964 15.5382 21.9741 15.6232 21.7244H13.9996C13.6703 21.7244 13.4038 21.462 13.4038 21.1378C13.4038 20.8135 13.6703 20.5512 13.9996 20.5512H20.8847L20.6147 20.2854C20.3796 20.0517 20.2004 19.7904 20.0805 19.504C19.9594 19.2153 19.8978 18.9071 19.8978 18.5817L19.8989 15.6522C18.1439 14.3874 16.071 13.7538 13.9994 13.7538C11.9279 13.7538 9.85512 14.3862 8.09996 15.6522V18.5817C8.09996 18.9071 8.03828 19.2153 7.91724 19.504C7.80319 19.7755 7.6356 20.0253 7.41796 20.2487L7.11421 20.5512H10.5986C10.928 20.5512 11.1945 20.8135 11.1945 21.1378C11.1945 21.462 10.928 21.7244 10.5986 21.7244H5.67576C5.34639 21.7244 5.07989 21.462 5.07989 21.1378C5.07989 20.9739 5.14739 20.8261 5.25795 20.7196L6.56957 19.4307C6.68013 19.3161 6.76392 19.1924 6.81979 19.0606C6.87914 18.9186 6.9094 18.7593 6.9094 18.5817V10.1025C6.9094 8.18235 7.70779 6.43632 8.99149 5.17251C9.82363 4.35333 10.8606 3.73582 12.0174 3.4024C12.0499 2.5924 12.2175 1.85459 12.4701 1.29547C12.8192 0.523283 13.3581 0.0455322 13.9993 0.0455322C14.6406 0.0455322 15.1783 0.523283 15.5274 1.29547C15.78 1.85456 15.9487 2.59355 15.9825 3.40355L16.1221 3.44594C16.8134 3.66018 17.464 3.98211 18.0518 4.38768C18.3194 4.57214 18.3858 4.93647 18.1984 5.20111C18.011 5.46462 17.6409 5.52993 17.3721 5.34547C16.8891 5.01093 16.3456 4.74512 15.7637 4.5641C15.2074 4.3911 14.6138 4.29715 13.9982 4.29715C12.377 4.29715 10.9011 4.95135 9.8318 6.00308C8.76226 7.05596 8.09887 8.50757 8.09887 10.1034V10.5594C8.25134 10.4666 8.40495 10.3772 8.56092 10.2913C9.06717 10.0129 9.58392 9.77914 10.1041 9.58897C10.4126 9.47669 10.7559 9.63136 10.8699 9.93497C10.984 10.2386 10.8269 10.5766 10.5185 10.6888C10.0401 10.863 9.57692 11.0726 9.13701 11.3132C8.78437 11.5069 8.43754 11.7268 8.09771 11.9709V12.3982C9.07415 11.8013 10.1251 11.3648 11.2085 11.091C12.6935 10.7152 14.2391 10.6453 15.7452 10.8779C16.0687 10.9271 16.291 11.2262 16.241 11.5447C16.191 11.8631 15.8872 12.082 15.5637 12.0327C14.2136 11.8219 12.8298 11.8861 11.5031 12.2218C10.3043 12.5254 9.14631 13.0547 8.09881 13.8108V14.2382C9.90274 13.1337 11.95 12.5815 13.9983 12.5815C16.0466 12.5815 18.095 13.1337 19.899 14.2393V13.8131C19.5824 13.5851 19.26 13.3789 18.9342 13.1956C18.5187 12.9619 18.0846 12.7602 17.64 12.5884C17.3339 12.4715 17.1838 12.1313 17.3025 11.83C17.4212 11.5286 17.7668 11.3809 18.0729 11.4977C18.564 11.6867 19.0493 11.9136 19.5195 12.1782C19.6476 12.2493 19.7744 12.3237 19.8989 12.4005V11.972C18.8759 11.2342 17.747 10.7106 16.5763 10.4036C15.2798 10.0633 13.9263 9.98424 12.6042 10.1664C12.2795 10.2099 11.9781 9.98654 11.9338 9.66689C11.8896 9.34726 12.1166 9.0505 12.4413 9.00698C13.9182 8.80305 15.4287 8.89126 16.8791 9.27049C17.9311 9.5466 18.9507 9.97507 19.9005 10.5571V10.1C19.8981 9.49504 19.8027 8.91073 19.627 8.36194C19.4442 7.79139 19.1742 7.25865 18.8344 6.78204L18.8353 6.78336ZM2.11585 3.10571C2.26598 2.81929 2.62559 2.70586 2.91656 2.85366C3.20752 3.00145 3.32274 3.35546 3.1726 3.64189C2.27762 5.34897 1.67942 7.17876 1.39078 9.05644C1.10332 10.9319 1.1231 12.8567 1.46643 14.7505C1.52229 15.069 1.30582 15.3738 0.98228 15.4288C0.658749 15.4837 0.349161 15.2706 0.293297 14.9521C-0.0709922 12.9346 -0.0942612 10.8838 0.214159 8.88237C0.521393 6.882 1.16035 4.92961 2.11584 3.10472L2.11585 3.10571ZM3.90581 4.37169C4.05594 4.08527 4.41555 3.97184 4.70652 4.11964C4.99747 4.26744 5.1127 4.62144 4.96256 4.90788C4.22468 6.31365 3.7324 7.82251 3.49381 9.37039C3.25639 10.9159 3.27385 12.5016 3.55666 14.0643C3.61252 14.3828 3.39605 14.6876 3.07251 14.7426C2.74898 14.7976 2.43939 14.5845 2.38352 14.2659C2.07861 12.5806 2.05999 10.869 2.31719 9.19749C2.57323 7.52707 3.10741 5.89673 3.90696 4.37305L3.90581 4.37169ZM5.69576 5.63654C5.8459 5.35011 6.2055 5.23669 6.49647 5.38448C6.78743 5.53228 6.90265 5.88629 6.75251 6.17272C6.17293 7.2783 5.78538 8.46524 5.59916 9.68319C5.41179 10.8988 5.42575 12.1464 5.64688 13.3758C5.70274 13.6943 5.48627 13.999 5.16273 14.054C4.8392 14.109 4.52961 13.8959 4.47375 13.5774C4.22935 12.2255 4.21422 10.8507 4.42138 9.51029C4.62737 8.16984 5.05566 6.86147 5.69691 5.63789L5.69576 5.63654ZM24.8279 3.64188C24.6778 3.35546 24.7918 3.00144 25.0839 2.85365C25.3749 2.70585 25.7345 2.81813 25.8846 3.1057C26.8413 4.9308 27.4791 6.88307 27.7863 8.88336C28.0936 10.8837 28.0715 12.9355 27.7072 14.9531C27.6513 15.2716 27.3417 15.4859 27.0182 15.4297C26.6947 15.3747 26.477 15.07 26.534 14.7515C26.8762 12.8565 26.8972 10.9339 26.6097 9.05743C26.3211 7.1808 25.724 5.34986 24.8279 3.64288L24.8279 3.64188ZM23.0379 4.90787C22.8878 4.62145 23.0019 4.26743 23.294 4.11964C23.5849 3.97184 23.9445 4.08412 24.0947 4.37169C24.8942 5.89545 25.4273 7.5258 25.6845 9.19613C25.9405 10.8677 25.9219 12.5793 25.6181 14.2646C25.5623 14.5831 25.2527 14.7973 24.9291 14.7412C24.6056 14.6862 24.388 14.3814 24.445 14.0629C24.7278 12.5014 24.7441 10.9159 24.5078 9.36903C24.2704 7.82121 23.777 6.31346 23.0391 4.90652L23.0379 4.90787ZM21.248 6.17271C21.0978 5.88629 21.2119 5.53227 21.504 5.38448C21.795 5.23668 22.1546 5.34896 22.3047 5.63653C22.946 6.86014 23.3743 8.1685 23.5803 9.50893C23.7863 10.8494 23.7711 12.2254 23.5279 13.5761C23.472 13.8946 23.1624 14.1088 22.8389 14.0527C22.5154 13.9977 22.2977 13.6929 22.3548 13.3744C22.5759 12.1463 22.5898 10.8975 22.4025 9.68183C22.2151 8.46397 21.8275 7.27703 21.2491 6.17136L21.248 6.17271ZM14.7759 3.1629C14.7281 2.61755 14.6106 2.13522 14.4442 1.7686C14.2894 1.42717 14.1288 1.21524 13.9996 1.21524C13.8704 1.21524 13.7098 1.42719 13.555 1.7686C13.3897 2.13408 13.2722 2.6164 13.2233 3.1629C13.4782 3.13541 13.7377 3.12051 13.9996 3.12051C14.2614 3.12051 14.521 3.13426 14.7759 3.1629Z" fill="#8D5AE2"/>
</svg>
