<svg width="24" height="25" viewBox="0 0 24 25" fill="none" xmlns="http://www.w3.org/2000/svg">
<path d="M14.438 0.0455322C14.6242 0.0455379 14.8056 0.103139 14.9561 0.210039C15.1066 0.31694 15.2184 0.467624 15.2753 0.640389L16.2428 3.5701C16.6492 3.76382 17.0379 3.98153 17.4091 4.22668L20.4979 3.57868C20.6801 3.54078 20.8698 3.5602 21.0399 3.63414C21.21 3.70808 21.3516 3.83272 21.4443 3.9901L23.8823 8.10267C23.9754 8.25997 24.0149 8.44202 23.995 8.62257C23.975 8.80311 23.8968 8.97283 23.7715 9.10725L21.6519 11.3872C21.6827 11.8244 21.6827 12.2632 21.6519 12.7004L23.7715 14.9838C23.8968 15.1182 23.975 15.288 23.995 15.4685C24.0149 15.649 23.9754 15.8311 23.8823 15.9884L21.4443 20.1027C21.3513 20.2597 21.2096 20.384 21.0396 20.4577C20.8695 20.5313 20.6799 20.5504 20.4979 20.5124L17.4091 19.8644C17.0397 20.1078 16.6492 20.3272 16.2446 20.521L15.2753 23.4507C15.2184 23.6234 15.1066 23.7741 14.9561 23.881C14.8056 23.9879 14.6242 24.0455 14.438 24.0455H9.56196C9.37576 24.0455 9.19435 23.9879 9.04388 23.881C8.89341 23.7741 8.78164 23.6234 8.72466 23.4507L7.75894 20.5227C7.35369 20.3296 6.96282 20.109 6.58918 19.8627L3.50206 20.5124C3.31993 20.5503 3.13017 20.5309 2.9601 20.4569C2.79002 20.383 2.64842 20.2583 2.55569 20.101L0.117655 15.9884C0.0245565 15.8311 -0.014877 15.649 0.00504009 15.4685C0.0249572 15.288 0.103196 15.1182 0.228475 14.9838L2.34812 12.7004C2.31742 12.2643 2.31742 11.8267 2.34812 11.3907L0.228475 9.10725C0.103196 8.97283 0.0249572 8.80311 0.00504009 8.62257C-0.014877 8.44202 0.0245565 8.25997 0.117655 8.10267L2.55569 3.98839C2.64868 3.83132 2.79039 3.70703 2.96044 3.63341C3.13049 3.55979 3.32012 3.54063 3.50206 3.57868L6.58918 4.22839C6.9621 3.98325 7.3526 3.7621 7.75894 3.56839L8.72642 0.640389C8.78321 0.46818 8.89445 0.317895 9.04422 0.211046C9.19399 0.104198 9.3746 0.0462619 9.5602 0.0455322H14.4363H14.438ZM13.7942 1.75982H10.2058L9.20664 4.78896L8.53292 5.10953C8.20173 5.26748 7.88201 5.44733 7.576 5.64782L6.9533 6.05925L3.75888 5.38725L1.96465 8.4181L4.15466 10.7804L4.10189 11.5072C4.07662 11.8657 4.07662 12.2254 4.10189 12.5838L4.15466 13.3107L1.96113 15.673L3.75712 18.7038L6.95154 18.0335L7.57424 18.4432C7.88025 18.6437 8.19997 18.8236 8.53116 18.9815L9.20488 19.3021L10.2058 22.3312H13.7977L14.8004 19.3004L15.4724 18.9815C15.8032 18.824 16.1224 18.6441 16.4275 18.4432L17.0485 18.0335L20.2446 18.7038L22.0389 15.673L19.8471 13.3107L19.8999 12.5838C19.9252 12.2248 19.9252 11.8645 19.8999 11.5055L19.8471 10.7787L22.0406 8.4181L20.2446 5.38725L17.0485 6.05582L16.4275 5.64782C16.1224 5.44693 15.8032 5.26706 15.4724 5.10953L14.8004 4.79068L13.796 1.75982H13.7942ZM12 6.90268C13.3996 6.90268 14.7418 7.44451 15.7315 8.40898C16.7212 9.37346 17.2771 10.6816 17.2771 12.0455C17.2771 13.4095 16.7212 14.7176 15.7315 15.6821C14.7418 16.6466 13.3996 17.1884 12 17.1884C10.6004 17.1884 9.25816 16.6466 8.2685 15.6821C7.27885 14.7176 6.72287 13.4095 6.72287 12.0455C6.72287 10.6816 7.27885 9.37346 8.2685 8.40898C9.25816 7.44451 10.6004 6.90268 12 6.90268ZM12 8.61696C11.0669 8.61696 10.1721 8.97818 9.51233 9.62117C8.85257 10.2641 8.48191 11.1362 8.48191 12.0455C8.48191 12.9548 8.85257 13.8269 9.51233 14.4699C10.1721 15.1129 11.0669 15.4741 12 15.4741C12.9331 15.4741 13.8279 15.1129 14.4877 14.4699C15.1474 13.8269 15.5181 12.9548 15.5181 12.0455C15.5181 11.1362 15.1474 10.2641 14.4877 9.62117C13.8279 8.97818 12.9331 8.61696 12 8.61696Z" fill="#8D5AE2"/>
</svg>
