<svg width="24" height="25" viewBox="0 0 24 25" fill="none" xmlns="http://www.w3.org/2000/svg">
<path d="M12 0.0455322C18.6276 0.0455322 24 5.41793 24 12.0455C24 18.6731 18.6276 24.0455 12 24.0455C5.3724 24.0455 0 18.6731 0 12.0455C0 5.41793 5.3724 0.0455322 12 0.0455322ZM12 2.44553C9.45392 2.44553 7.01212 3.45696 5.21178 5.25731C3.41143 7.05766 2.4 9.49945 2.4 12.0455C2.4 14.5916 3.41143 17.0334 5.21178 18.8338C7.01212 20.6341 9.45392 21.6455 12 21.6455C14.5461 21.6455 16.9879 20.6341 18.7882 18.8338C20.5886 17.0334 21.6 14.5916 21.6 12.0455C21.6 9.49945 20.5886 7.05766 18.7882 5.25731C16.9879 3.45696 14.5461 2.44553 12 2.44553ZM11.988 9.64553C12.6576 9.64553 13.2 10.1879 13.2 10.8575V17.0063C13.4288 17.1384 13.6075 17.3423 13.7086 17.5863C13.8097 17.8304 13.8274 18.101 13.7591 18.3561C13.6907 18.6113 13.54 18.8367 13.3305 18.9975C13.1209 19.1584 12.8642 19.2455 12.6 19.2455H12.012C11.8528 19.2455 11.6952 19.2142 11.5482 19.1533C11.4011 19.0924 11.2675 19.0031 11.155 18.8905C11.0424 18.778 10.9532 18.6444 10.8923 18.4973C10.8313 18.3503 10.8 18.1927 10.8 18.0335V12.0455C10.4817 12.0455 10.1765 11.9191 9.95147 11.6941C9.72643 11.469 9.6 11.1638 9.6 10.8455C9.6 10.5273 9.72643 10.222 9.95147 9.997C10.1765 9.77196 10.4817 9.64553 10.8 9.64553H11.988ZM12 6.04553C12.3183 6.04553 12.6235 6.17196 12.8485 6.397C13.0736 6.62205 13.2 6.92727 13.2 7.24553C13.2 7.56379 13.0736 7.86902 12.8485 8.09406C12.6235 8.3191 12.3183 8.44553 12 8.44553C11.6817 8.44553 11.3765 8.3191 11.1515 8.09406C10.9264 7.86902 10.8 7.56379 10.8 7.24553C10.8 6.92727 10.9264 6.62205 11.1515 6.397C11.3765 6.17196 11.6817 6.04553 12 6.04553Z" fill="#8D5AE2"/>
</svg>
