<svg width="24" height="24" viewBox="0 0 24 24" fill="none" xmlns="http://www.w3.org/2000/svg">
<path d="M13.707 18.3632C13.707 21.1384 16.016 23.3959 18.854 23.3959C21.692 23.3959 24.001 21.1384 24.001 18.3632C24.001 15.588 21.692 13.3301 18.854 13.3301C16.016 13.3301 13.707 15.588 13.707 18.3632ZM18.854 15.1488C20.6667 15.1488 22.1411 16.5906 22.1411 18.3632C22.1411 20.1353 20.6667 21.5771 18.854 21.5771C17.0413 21.5771 15.5669 20.1353 15.5669 18.3632C15.5669 16.5906 17.0413 15.1488 18.854 15.1488Z" fill="#8D5AE2"/>
<path d="M3.25485 23.9995H7.75888C9.55341 23.9995 11.0137 22.5715 11.0137 20.8167V16.4123C11.0137 14.6575 9.55341 13.2295 7.75888 13.2295H3.25485C1.46032 13.2295 0 14.6575 0 16.4123V20.8167C0 22.5715 1.46032 23.9995 3.25485 23.9995ZM1.85992 16.4123C1.85992 15.6601 2.48564 15.0483 3.25485 15.0483H7.75888C8.5281 15.0483 9.15382 15.6601 9.15382 16.4123V20.8167C9.15382 21.5689 8.5281 22.1808 7.75888 22.1808H3.25485C2.48564 22.1808 1.85992 21.5689 1.85992 20.8167V16.4123Z" fill="#8D5AE2"/>
<path d="M8.27438 10.6355H16.4229C17.2774 10.6355 18.0612 10.1786 18.4676 9.44326C18.8744 8.70794 18.8363 7.81676 18.3681 7.11741L14.2941 1.02838C13.8628 0.384533 13.1358 0 12.3489 0C11.5615 0 10.8345 0.384533 10.4031 1.02883L6.3291 7.11741C5.86094 7.81676 5.8228 8.70794 6.22965 9.44326C6.63606 10.1786 7.4198 10.6355 8.27438 10.6355ZM7.88569 8.11293L11.9597 2.02479C12.0791 1.8454 12.2549 1.81876 12.3489 1.81876C12.4424 1.81876 12.6181 1.8454 12.7375 2.02435L16.8116 8.11293C16.9487 8.31763 16.871 8.50679 16.8315 8.57828C16.792 8.65021 16.6726 8.81672 16.4229 8.81672H8.27438C8.02464 8.81672 7.90521 8.65021 7.86571 8.57828C7.8262 8.50679 7.74856 8.31763 7.88569 8.11293Z" fill="#8D5AE2"/>
</svg>
