<svg width="26" height="24" viewBox="0 0 26 24" fill="none" xmlns="http://www.w3.org/2000/svg">
<ellipse cx="13.0008" cy="12" rx="1.16485" ry="1.2" fill="#8D5AE2"/>
<path d="M18.0762 12C18.0762 15.2256 17.4401 18.1088 16.4456 20.1578C15.4262 22.2582 14.1614 23.25 13.002 23.25C11.8425 23.25 10.5778 22.2582 9.55834 20.1578C8.56387 18.1088 7.92773 15.2256 7.92773 12C7.92773 8.77445 8.56387 5.89116 9.55834 3.8422C10.5778 1.74178 11.8425 0.75 13.002 0.75C14.1614 0.75 15.4262 1.74178 16.4456 3.8422C17.4401 5.89116 18.0762 8.77445 18.0762 12Z" stroke="#8D5AE2" stroke-width="1.5"/>
<path d="M15.5455 16.5417C12.8395 18.1512 10.1042 19.0229 7.89073 19.1598C5.63102 19.2995 4.15006 18.6751 3.55674 17.6164C2.96343 16.5578 3.179 14.9243 4.42632 12.9782C5.64812 11.0718 7.74859 9.06738 10.4546 7.45794C13.1605 5.84849 15.8958 4.97676 18.1093 4.83989C20.369 4.70016 21.85 5.32456 22.4433 6.38322C23.0366 7.44189 22.821 9.07534 21.5737 11.0215C20.3519 12.9278 18.2514 14.9323 15.5455 16.5417Z" stroke="#8D5AE2" stroke-width="1.5"/>
<path d="M15.5455 7.45806C12.8395 5.84862 10.1042 4.97688 7.89073 4.84001C5.63102 4.70028 4.15006 5.32468 3.55674 6.38335C2.96343 7.44201 3.179 9.07546 4.42632 11.0216C5.64812 12.928 7.74859 14.9324 10.4546 16.5418C13.1605 18.1513 15.8958 19.023 18.1093 19.1599C20.369 19.2996 21.85 18.6752 22.4433 17.6166C23.0366 16.5579 22.821 14.9244 21.5737 12.9783C20.3519 11.0719 18.2514 9.0675 15.5455 7.45806Z" stroke="#8D5AE2" stroke-width="1.5"/>
</svg>
