<svg width="20" height="25" viewBox="0 0 20 25" fill="none" xmlns="http://www.w3.org/2000/svg">
<path d="M18.1818 4.33125H17.1091C16.9215 3.83106 16.5745 3.39782 16.1155 3.09091C15.6565 2.784 15.1081 2.61845 14.5455 2.61696H13.6364C13.6364 1.93498 13.349 1.28092 12.8376 0.798686C12.3261 0.31645 11.6324 0.0455322 10.9091 0.0455322H9.09091C8.36759 0.0455322 7.6739 0.31645 7.16244 0.798686C6.65097 1.28092 6.36364 1.93498 6.36364 2.61696H5.45455C4.89187 2.61845 4.34345 2.784 3.88449 3.09091C3.42552 3.39782 3.07847 3.83106 2.89091 4.33125H1.81818C1.33597 4.33125 0.873508 4.51186 0.532533 4.83335C0.191558 5.15484 0 5.59088 0 6.04553V22.3312C0 22.7859 0.191558 23.2219 0.532533 23.5434C0.873508 23.8649 1.33597 24.0455 1.81818 24.0455H18.1818C18.664 24.0455 19.1265 23.8649 19.4675 23.5434C19.8084 23.2219 20 22.7859 20 22.3312V6.04553C20 5.59088 19.8084 5.15484 19.4675 4.83335C19.1265 4.51186 18.664 4.33125 18.1818 4.33125ZM5.45455 4.33125H6.36364C6.84585 4.33125 7.30831 4.15063 7.64928 3.82914C7.99026 3.50765 8.18182 3.07162 8.18182 2.61696C8.18182 2.38963 8.2776 2.17161 8.44808 2.01087C8.61857 1.85012 8.8498 1.75982 9.09091 1.75982H10.9091C11.1502 1.75982 11.3814 1.85012 11.5519 2.01087C11.7224 2.17161 11.8182 2.38963 11.8182 2.61696C11.8182 3.07162 12.0097 3.50765 12.3507 3.82914C12.6917 4.15063 13.1542 4.33125 13.6364 4.33125H14.5455C14.7866 4.33125 15.0178 4.42155 15.1883 4.5823C15.3588 4.74304 15.4545 4.96106 15.4545 5.18839V6.04553H4.54545V5.18839C4.54545 4.96106 4.64123 4.74304 4.81172 4.5823C4.98221 4.42155 5.21344 4.33125 5.45455 4.33125ZM18.1818 22.3312H1.81818V6.04553H2.72727C2.72727 6.50019 2.91883 6.93622 3.25981 7.25772C3.60078 7.57921 4.06324 7.75982 4.54545 7.75982H15.4545C15.9368 7.75982 16.3992 7.57921 16.7402 7.25772C17.0812 6.93622 17.2727 6.50019 17.2727 6.04553H18.1818V22.3312Z" fill="#8D5AE2"/>
<path d="M15.455 9.47412H4.54593C4.30483 9.47412 4.0736 9.56443 3.90311 9.72517C3.73262 9.88592 3.63684 10.1039 3.63684 10.3313C3.63684 10.5586 3.73262 10.7766 3.90311 10.9374C4.0736 11.0981 4.30483 11.1884 4.54593 11.1884H15.455C15.6961 11.1884 15.9274 11.0981 16.0978 10.9374C16.2683 10.7766 16.3641 10.5586 16.3641 10.3313C16.3641 10.1039 16.2683 9.88592 16.0978 9.72517C15.9274 9.56443 15.6961 9.47412 15.455 9.47412Z" fill="#8D5AE2"/>
<path d="M15.455 13.7598H4.54593C4.30483 13.7598 4.0736 13.8501 3.90311 14.0108C3.73262 14.1716 3.63684 14.3896 3.63684 14.6169C3.63684 14.8442 3.73262 15.0623 3.90311 15.223C4.0736 15.3837 4.30483 15.4741 4.54593 15.4741H15.455C15.6961 15.4741 15.9274 15.3837 16.0978 15.223C16.2683 15.0623 16.3641 14.8442 16.3641 14.6169C16.3641 14.3896 16.2683 14.1716 16.0978 14.0108C15.9274 13.8501 15.6961 13.7598 15.455 13.7598Z" fill="#8D5AE2"/>
<path d="M10.0005 18.0455H4.54593C4.30483 18.0455 4.0736 18.1358 3.90311 18.2966C3.73262 18.4573 3.63684 18.6753 3.63684 18.9027C3.63684 19.13 3.73262 19.348 3.90311 19.5088C4.0736 19.6695 4.30483 19.7598 4.54593 19.7598H10.0005C10.2416 19.7598 10.4728 19.6695 10.6433 19.5088C10.8138 19.348 10.9096 19.13 10.9096 18.9027C10.9096 18.6753 10.8138 18.4573 10.6433 18.2966C10.4728 18.1358 10.2416 18.0455 10.0005 18.0455Z" fill="#8D5AE2"/>
<path d="M9.35427 4.08262C9.43922 4.16206 9.53996 4.22491 9.65072 4.26757C9.76148 4.31022 9.88009 4.33185 9.99973 4.33119H10.1725C10.2327 4.32325 10.291 4.30587 10.3452 4.27977C10.401 4.26265 10.4533 4.23655 10.4997 4.20262L10.6452 4.09977C10.7279 4.01825 10.7928 3.92212 10.8361 3.81691C10.8851 3.70855 10.9098 3.59183 10.9088 3.47405C10.9133 3.41699 10.9133 3.35969 10.9088 3.30262C10.8989 3.24892 10.8805 3.19692 10.8543 3.14834C10.8344 3.09372 10.8069 3.04183 10.7725 2.99405L10.6634 2.86548C10.5789 2.78514 10.4783 2.72137 10.3675 2.67786C10.2567 2.63434 10.1379 2.61194 10.0179 2.61194C9.8979 2.61194 9.77908 2.63434 9.6683 2.67786C9.55751 2.72137 9.45697 2.78514 9.37246 2.86548C9.28491 2.94415 9.21489 3.03849 9.1665 3.14299C9.11811 3.24749 9.09232 3.36004 9.09064 3.47405C9.09207 3.58606 9.11678 3.69672 9.16336 3.79977C9.20663 3.90498 9.27151 4.00111 9.35427 4.08262Z" fill="#8D5AE2"/>
</svg>
