<svg width="26" height="26" viewBox="0 0 26 26" fill="none" xmlns="http://www.w3.org/2000/svg">
<path d="M0 4.69457C0 2.10189 2.10177 0.00012207 4.69445 0.00012207H21.3055C23.8982 0.00012207 26 2.10189 26 4.69457V21.3056C26 23.8983 23.8982 26.0001 21.3055 26.0001H4.69445C2.10177 26.0001 0 23.8983 0 21.3056V4.69457ZM4.69445 2.16679C3.29839 2.16679 2.16667 3.29851 2.16667 4.69457V5.05567H23.8333V4.69457C23.8333 3.29851 22.7016 2.16679 21.3055 2.16679H4.69445ZM2.16667 21.3056C2.16667 22.7017 3.29839 23.8335 4.69445 23.8335H21.3055C22.7016 23.8335 23.8333 22.7017 23.8333 21.3056V7.22234H2.16667V21.3056ZM5.56112 9.38901H10.3278C11.0057 9.38901 11.5555 9.93871 11.5555 10.6168V20.439C11.5555 21.117 11.0057 21.6668 10.3278 21.6668H5.56112C4.88304 21.6668 4.33333 21.117 4.33333 20.439V10.6168C4.33333 9.93871 4.88304 9.38901 5.56112 9.38901ZM6.5 19.5001H9.38889V11.5556H6.5V19.5001ZM13 10.4723C13 9.87405 13.485 9.38901 14.0833 9.38901H20.5833C21.1816 9.38901 21.6667 9.87405 21.6667 10.4723C21.6667 11.0706 21.1816 11.5556 20.5833 11.5556H14.0833C13.485 11.5556 13 11.0706 13 10.4723ZM14.0833 13.7223C13.485 13.7223 13 14.2073 13 14.8056C13 15.4039 13.485 15.889 14.0833 15.889H19.1389C19.7372 15.889 20.2222 15.4039 20.2222 14.8056C20.2222 14.2073 19.7372 13.7223 19.1389 13.7223H14.0833Z" fill="white"/>
</svg>
