<svg width="24" height="22" viewBox="0 0 24 22" fill="none" xmlns="http://www.w3.org/2000/svg">
<path d="M0 3.8372C0 1.74311 1.74608 0.0455322 3.9 0.0455322H20.1C22.2539 0.0455322 24 1.74311 24 3.8372V17.2539C24 19.3479 22.2539 21.0455 20.1 21.0455H3.9C1.74608 21.0455 0 19.3479 0 17.2539V3.8372ZM3.9 1.79553C2.7402 1.79553 1.8 2.70962 1.8 3.8372V17.2539C1.8 18.3814 2.7402 19.2955 3.9 19.2955H20.1C21.2598 19.2955 22.2 18.3814 22.2 17.2539V3.8372C22.2 2.70962 21.2598 1.79553 20.1 1.79553H3.9ZM8.4 7.33802V13.754C8.4 14.6413 9.37855 15.2039 10.1783 14.7762L16.1778 11.5682C17.0068 11.125 17.0068 9.96698 16.1778 9.52376L10.1783 6.31576C9.37855 5.88813 8.4 6.45065 8.4 7.33802Z" fill="#8D5AE2"/>
</svg>
