<svg width="30" height="30" viewBox="0 0 30 30" fill="none" xmlns="http://www.w3.org/2000/svg">
<path fill-rule="evenodd" clip-rule="evenodd" d="M15 -0.000402927C13.2638 -0.000574924 11.5647 0.501311 10.1073 1.44478C8.64996 2.38824 7.49651 3.73303 6.78598 5.31708C6.68493 5.54419 6.58142 5.77021 6.47548 5.99508L6.44548 5.99658C6.34948 5.99958 6.21898 5.99958 5.99998 5.99958C4.40869 5.99958 2.88257 6.63172 1.75735 7.75693C0.632139 8.88215 0 10.4083 0 11.9996C0 13.5909 0.632139 15.117 1.75735 16.2422C2.88257 17.3674 4.40869 17.9995 5.99998 17.9995H6.25798L9.25797 14.9996H5.99998C5.20434 14.9996 4.44128 14.6835 3.87867 14.1209C3.31606 13.5583 2.99999 12.7952 2.99999 11.9996C2.99999 11.2039 3.31606 10.4409 3.87867 9.87825C4.44128 9.31564 5.20434 8.99957 5.99998 8.99957H6.09598C6.40798 8.99957 6.77098 9.00107 7.07098 8.93957C7.444 8.87418 7.80066 8.73661 8.12098 8.53457C8.48248 8.30057 8.73147 8.00957 8.92047 7.74407C9.03634 7.5731 9.13722 7.39242 9.22197 7.20408C9.30147 7.03908 9.39897 6.82158 9.51597 6.56208L9.52197 6.54708C9.9951 5.48982 10.7641 4.59207 11.7361 3.96214C12.7081 3.33221 13.8417 2.99702 15 2.99702C16.1582 2.99702 17.2918 3.33221 18.2638 3.96214C19.2358 4.59207 20.0048 5.48982 20.4779 6.54708L20.4854 6.56208C20.6009 6.82158 20.6984 7.03758 20.7779 7.20408C20.8469 7.34958 20.9489 7.56107 21.0794 7.74407C21.2684 8.00807 21.5159 8.30057 21.8789 8.53607C22.2419 8.77007 22.6094 8.87657 22.9289 8.94107C23.2289 9.00107 23.5919 9.00107 23.9039 9.00107L23.9999 8.99957C24.7956 8.99957 25.5586 9.31564 26.1212 9.87825C26.6839 10.4409 26.9999 11.2039 26.9999 11.9996C26.9999 12.7952 26.6839 13.5583 26.1212 14.1209C25.5586 14.6835 24.7956 14.9996 23.9999 14.9996H20.7419L23.7419 17.9995H23.9999C25.5912 17.9995 27.1173 17.3674 28.2426 16.2422C29.3678 15.117 29.9999 13.5909 29.9999 11.9996C29.9999 10.4083 29.3678 8.88215 28.2426 7.75693C27.1173 6.63172 25.5912 5.99958 23.9999 5.99958C23.7809 5.99958 23.6504 5.99958 23.5544 5.99658H23.5244C22.9011 4.23623 21.7458 2.71331 20.2184 1.63882C18.6911 0.564332 16.8674 -0.00853311 15 -0.000402927Z" fill="#2F2B3D" fill-opacity="0.8"/>
<path d="M14.998 14.9994L13.9375 13.9389L14.998 12.8784L16.0585 13.9389L14.998 14.9994ZM16.498 28.4994C16.498 28.8972 16.3399 29.2787 16.0586 29.56C15.7773 29.8413 15.3958 29.9994 14.998 29.9994C14.6002 29.9994 14.2186 29.8413 13.9373 29.56C13.656 29.2787 13.498 28.8972 13.498 28.4994H16.498ZM7.9375 19.9389L13.9375 13.9389L16.0585 16.0599L10.0585 22.0599L7.9375 19.9389ZM16.0585 13.9389L22.0585 19.9389L19.9375 22.0599L13.9375 16.0599L16.0585 13.9389ZM16.498 14.9994V28.4994H13.498V14.9994H16.498Z" fill="#2F2B3D" fill-opacity="0.8"/>
</svg>
