<svg width="20" height="20" viewBox="0 0 20 20" fill="none" xmlns="http://www.w3.org/2000/svg">
<path d="M0 3.61111C0 1.61674 1.61674 0 3.61111 0H16.3889C18.3832 0 20 1.61674 20 3.61111V16.3889C20 18.3832 18.3832 20 16.3889 20H3.61111C1.61674 20 0 18.3832 0 16.3889V3.61111ZM3.61111 1.66667C2.53722 1.66667 1.66667 2.53722 1.66667 3.61111V3.88889H18.3333V3.61111C18.3333 2.53722 17.4627 1.66667 16.3889 1.66667H3.61111ZM1.66667 16.3889C1.66667 17.4627 2.53722 18.3333 3.61111 18.3333H16.3889C17.4627 18.3333 18.3333 17.4627 18.3333 16.3889V5.55555H1.66667V16.3889ZM4.27778 7.22222H7.94447C8.46596 7.22222 8.88886 7.64507 8.88886 8.16667V15.7222C8.88886 16.2438 8.46596 16.6667 7.94447 16.6667H4.27778C3.75618 16.6667 3.33333 16.2438 3.33333 15.7222V8.16667C3.33333 7.64507 3.75618 7.22222 4.27778 7.22222ZM5 15H7.22222V8.88886H5V15ZM10 8.05553C10 7.59533 10.3731 7.22222 10.8333 7.22222H15.8333C16.2936 7.22222 16.6667 7.59533 16.6667 8.05553C16.6667 8.51576 16.2936 8.88886 15.8333 8.88886H10.8333C10.3731 8.88886 10 8.51576 10 8.05553ZM10.8333 10.5555C10.3731 10.5555 10 10.9286 10 11.3889C10 11.8491 10.3731 12.2222 10.8333 12.2222H14.7222C15.1824 12.2222 15.5555 11.8491 15.5555 11.3889C15.5555 10.9286 15.1824 10.5555 14.7222 10.5555H10.8333Z" fill="white"/>
</svg>
