<svg width="60" height="60" viewBox="0 0 60 60" fill="none" xmlns="http://www.w3.org/2000/svg">
<circle cx="30" cy="30.0001" r="30" fill="#8D5AE2"/>
<path d="M34.5676 31.9307C34.5676 31.3554 35.0396 30.889 35.6216 30.889H38.4325C39.0146 30.889 39.4865 31.3554 39.4865 31.9307C39.4865 32.5059 39.0146 32.9724 38.4325 32.9724H35.6216C35.0396 32.9724 34.5676 32.5059 34.5676 31.9307ZM17 19.7779H17.0193C17.1941 18.2154 18.5345 17.0001 20.1622 17.0001H36.3244C38.0707 17.0001 39.4865 18.3992 39.4865 20.1251V21.2876C41.5009 21.7578 43 23.5462 43 25.6807V37.4862C43 39.9791 40.955 42.0001 38.4325 42.0001H21.5676C19.045 42.0001 17 39.9791 17 37.4862V19.7779ZM38.4325 23.2501H19.1081V37.4862C19.1081 38.8286 20.2092 39.9168 21.5676 39.9168H38.4325C39.7908 39.9168 40.8919 38.8286 40.8919 37.4862V25.6807C40.8919 24.3383 39.7908 23.2501 38.4325 23.2501ZM37.3784 21.1668V20.1251C37.3784 19.5498 36.9065 19.0835 36.3244 19.0835H20.1622C19.58 19.0835 19.1081 19.5498 19.1081 20.1251C19.1081 20.7004 19.58 21.1668 20.1622 21.1668H37.3784Z" fill="white"/>
</svg>
