<svg width="24" height="25" viewBox="0 0 24 25" fill="none" xmlns="http://www.w3.org/2000/svg">
<path d="M2.51163 10.6502H3.34884V17.627C3.34884 18.4411 3.67226 19.2219 4.24795 19.7976C4.82364 20.3733 5.60445 20.6967 6.4186 20.6967H6.69767V20.9758C6.69767 21.7899 7.0211 22.5708 7.59679 23.1465C8.17248 23.7221 8.95329 24.0456 9.76744 24.0456H17.5814C18.3955 24.0456 19.1764 23.7221 19.7521 23.1465C20.3277 22.5708 20.6512 21.7899 20.6512 20.9758V10.6502H21.4884C22.1545 10.6502 22.7933 10.3856 23.2644 9.91458C23.7354 9.44355 24 8.80471 24 8.13859V2.55719C24 1.89107 23.7354 1.25222 23.2644 0.781201C22.7933 0.31018 22.1545 0.0455627 21.4884 0.0455627H2.51163C1.8455 0.0455627 1.20666 0.31018 0.735639 0.781201C0.264617 1.25222 0 1.89107 0 2.55719V8.13859C0 8.80471 0.264617 9.44355 0.735639 9.91458C1.20666 10.3856 1.8455 10.6502 2.51163 10.6502ZM18.9767 20.9758C18.9767 21.3459 18.8297 21.7008 18.5681 21.9625C18.3064 22.2241 17.9515 22.3711 17.5814 22.3711H9.76744C9.39737 22.3711 9.04246 22.2241 8.78078 21.9625C8.5191 21.7008 8.37209 21.3459 8.37209 20.9758V19.8595C8.3692 19.6384 8.28007 19.4271 8.12368 19.2707C7.9673 19.1143 7.75603 19.0252 7.53488 19.0223H6.4186C6.04854 19.0223 5.69362 18.8753 5.43194 18.6136C5.17027 18.3519 5.02326 17.997 5.02326 17.627V6.1851H15.6279V17.627C15.6279 17.997 15.4809 18.3519 15.2192 18.6136C14.9575 18.8753 14.6026 19.0223 14.2326 19.0223H11.4419C11.2198 19.0223 11.0069 19.1105 10.8499 19.2675C10.6929 19.4245 10.6047 19.6375 10.6047 19.8595C10.6047 20.0816 10.6929 20.2945 10.8499 20.4515C11.0069 20.6085 11.2198 20.6967 11.4419 20.6967H14.2326C15.0467 20.6967 15.8275 20.3733 16.4032 19.7976C16.9789 19.2219 17.3023 18.4411 17.3023 17.627V6.1851H18.9767V20.9758ZM1.67442 2.55719C1.67731 2.33605 1.76644 2.12478 1.92283 1.96839C2.07921 1.81201 2.29049 1.72287 2.51163 1.71998H21.4884C21.7095 1.72287 21.9208 1.81201 22.0772 1.96839C22.2336 2.12478 22.3227 2.33605 22.3256 2.55719V8.13859C22.3227 8.35973 22.2336 8.571 22.0772 8.72739C21.9208 8.88377 21.7095 8.9729 21.4884 8.9758H20.6512V6.1851H20.9302C21.1523 6.1851 21.3652 6.09689 21.5222 5.93989C21.6792 5.78288 21.7674 5.56993 21.7674 5.34789C21.7674 5.12585 21.6792 4.9129 21.5222 4.75589C21.3652 4.59889 21.1523 4.51068 20.9302 4.51068H3.06977C2.84773 4.51068 2.63478 4.59889 2.47777 4.75589C2.32076 4.9129 2.23256 5.12585 2.23256 5.34789C2.23256 5.56993 2.32076 5.78288 2.47777 5.93989C2.63478 6.09689 2.84773 6.1851 3.06977 6.1851H3.34884V8.9758H2.51163C2.29049 8.9729 2.07921 8.88377 1.92283 8.72739C1.76644 8.571 1.67731 8.35973 1.67442 8.13859V2.55719Z" fill="#8D5AE2"/>
<path d="M11.1629 11.6772C11.1629 11.3646 11.721 11.3646 11.721 11.6772V13.5302C11.721 13.7523 11.8093 13.9652 11.9663 14.1222C12.1233 14.2792 12.3362 14.3674 12.5583 14.3674C12.7803 14.3674 12.9932 14.2792 13.1502 14.1222C13.3073 13.9652 13.3955 13.7523 13.3955 13.5302V12.8828H13.6745C13.8966 12.8828 14.1095 12.7946 14.2665 12.6376C14.4235 12.4806 14.5117 12.2676 14.5117 12.0456C14.5117 11.8235 14.4235 11.6106 14.2665 11.4536C14.1095 11.2966 13.8966 11.2084 13.6745 11.2084H13.3285C13.2066 10.7537 12.9246 10.3583 12.5345 10.095C12.1443 9.83164 11.6721 9.71805 11.2049 9.7751C10.7376 9.83215 10.3067 10.056 9.99132 10.4055C9.67596 10.755 9.4974 11.2065 9.48849 11.6772V12.4139C9.48849 12.7265 8.93035 12.7265 8.93035 12.4139V10.5609C8.93035 10.3389 8.84214 10.1259 8.68513 9.96891C8.52813 9.81191 8.31518 9.7237 8.09314 9.7237C7.8711 9.7237 7.65815 9.81191 7.50114 9.96891C7.34413 10.1259 7.25593 10.3389 7.25593 10.5609V11.2084H6.97686C6.75482 11.2084 6.54187 11.2966 6.38486 11.4536C6.22785 11.6106 6.13965 11.8235 6.13965 12.0456C6.13965 12.2676 6.22785 12.4806 6.38486 12.6376C6.54187 12.7946 6.75482 12.8828 6.97686 12.8828H7.3229C7.44479 13.3374 7.72676 13.7328 8.11694 13.9961C8.50712 14.2595 8.97926 14.3731 9.44652 14.316C9.91377 14.259 10.3447 14.0351 10.6601 13.6856C10.9754 13.3362 11.154 12.8846 11.1629 12.4139V11.6772Z" fill="#8D5AE2"/>
</svg>
