<svg width="20" height="30" viewBox="0 0 20 30" fill="none" xmlns="http://www.w3.org/2000/svg">
<g clip-path="url(#clip0_458_690)">
<path fill-rule="evenodd" clip-rule="evenodd" d="M0 8.56517L7.07625 8.5376L7.02121 15.884H0V8.56517Z" fill="white"/>
<path d="M11.2595 14.0741C12.285 14.0741 13.1164 13.2411 13.1164 12.2135C13.1164 11.186 12.285 10.353 11.2595 10.353C10.2339 10.353 9.40259 11.186 9.40259 12.2135C9.40259 13.2411 10.2339 14.0741 11.2595 14.0741Z" fill="#FD636B"/>
<path fill-rule="evenodd" clip-rule="evenodd" d="M0.770662 8.57049C0.809516 8.15037 0.846751 7.73025 0.885604 7.31014C5.731 6.51532 10.578 5.71889 15.4234 4.92407C18.263 4.89974 19.5112 6.70835 19.461 8.77649C13.2298 8.70836 7.00022 8.63861 0.769043 8.57049H0.770662Z" fill="url(#paint0_linear_458_690)"/>
<path fill-rule="evenodd" clip-rule="evenodd" d="M1.10413 6.40826C4.77419 4.89974 8.44426 3.39121 12.1143 1.88268C14.0133 1.78374 15.1012 2.6483 15.7812 4.01246L1.10413 6.40826Z" fill="url(#paint1_linear_458_690)"/>
<path fill-rule="evenodd" clip-rule="evenodd" d="M0.794922 29.9996V15.8811H10.408C15.0397 15.7805 15.5027 12.6743 14.7758 8.6499C16.3526 8.6499 17.9311 8.65152 19.5079 8.65152C21.4392 15.6897 17.4956 21.2842 10.8969 21.4805L5.87344 21.4902V29.9964L0.796541 29.9996H0.794922Z" fill="#2E3D54"/>
</g>
<defs>
<linearGradient id="paint0_linear_458_690" x1="16.3931" y1="1.43013" x2="4.04573" y2="12.2919" gradientUnits="userSpaceOnUse">
<stop stop-color="#FD636B"/>
<stop offset="0.6" stop-color="#FD636B"/>
<stop offset="1" stop-color="#FFB901"/>
</linearGradient>
<linearGradient id="paint1_linear_458_690" x1="13.424" y1="-2.12383" x2="3.55864" y2="10.6005" gradientUnits="userSpaceOnUse">
<stop stop-color="#FD636B"/>
<stop offset="0.501961" stop-color="#FD636B"/>
<stop offset="1" stop-color="#FFB901"/>
</linearGradient>
<clipPath id="clip0_458_690">
<rect width="20" height="30" fill="white"/>
</clipPath>
</defs>
</svg>
